<mxfile host="app.diagrams.net" modified="2024-05-31T01:27:59.318Z" agent="Mozilla/5.0 (Macintosh; Intel Mac OS X 10_15_7) AppleWebKit/537.36 (KHTML, like Gecko) Chrome/125.0.0.0 Safari/537.36" etag="xXhGd1GZqylNIWisXz2w" version="24.4.7" type="device">
  <diagram name="페이지-1" id="oaPoJ62NCz2fcmpFrCJF">
    <mxGraphModel dx="1158" dy="776" grid="1" gridSize="10" guides="1" tooltips="1" connect="1" arrows="1" fold="1" page="1" pageScale="1" pageWidth="827" pageHeight="1169" math="0" shadow="0">
      <root>
        <mxCell id="0" />
        <mxCell id="1" parent="0" />
        <mxCell id="G3qtx_viLzdnVJc0cmcP-47" value="&lt;span style=&quot;font-size: 36px;&quot;&gt;DB (mySQL)&lt;/span&gt;" style="swimlane;whiteSpace=wrap;html=1;startSize=110;" parent="1" vertex="1">
          <mxGeometry x="810" y="210" width="1749" height="920" as="geometry" />
        </mxCell>
        <mxCell id="G3qtx_viLzdnVJc0cmcP-79" value="users" style="shape=table;startSize=30;container=1;collapsible=0;childLayout=tableLayout;strokeColor=default;fontSize=16;" parent="G3qtx_viLzdnVJc0cmcP-47" vertex="1">
          <mxGeometry x="30" y="150" width="760" height="290" as="geometry" />
        </mxCell>
        <mxCell id="G3qtx_viLzdnVJc0cmcP-80" value="" style="shape=tableRow;horizontal=0;startSize=0;swimlaneHead=0;swimlaneBody=0;strokeColor=inherit;top=0;left=0;bottom=0;right=0;collapsible=0;dropTarget=0;fillColor=none;points=[[0,0.5],[1,0.5]];portConstraint=eastwest;fontSize=16;" parent="G3qtx_viLzdnVJc0cmcP-79" vertex="1">
          <mxGeometry y="30" width="760" height="20" as="geometry" />
        </mxCell>
        <mxCell id="G3qtx_viLzdnVJc0cmcP-81" value="Field" style="shape=partialRectangle;html=1;whiteSpace=wrap;connectable=0;strokeColor=inherit;overflow=hidden;fillColor=none;top=0;left=0;bottom=0;right=0;pointerEvents=1;fontSize=16;" parent="G3qtx_viLzdnVJc0cmcP-80" vertex="1">
          <mxGeometry width="100" height="20" as="geometry">
            <mxRectangle width="100" height="20" as="alternateBounds" />
          </mxGeometry>
        </mxCell>
        <mxCell id="G3qtx_viLzdnVJc0cmcP-82" value="Type" style="shape=partialRectangle;html=1;whiteSpace=wrap;connectable=0;strokeColor=inherit;overflow=hidden;fillColor=none;top=0;left=0;bottom=0;right=0;pointerEvents=1;fontSize=16;" parent="G3qtx_viLzdnVJc0cmcP-80" vertex="1">
          <mxGeometry x="100" width="120" height="20" as="geometry">
            <mxRectangle width="120" height="20" as="alternateBounds" />
          </mxGeometry>
        </mxCell>
        <mxCell id="G3qtx_viLzdnVJc0cmcP-83" value="Null" style="shape=partialRectangle;html=1;whiteSpace=wrap;connectable=0;strokeColor=inherit;overflow=hidden;fillColor=none;top=0;left=0;bottom=0;right=0;pointerEvents=1;fontSize=16;" parent="G3qtx_viLzdnVJc0cmcP-80" vertex="1">
          <mxGeometry x="220" width="50" height="20" as="geometry">
            <mxRectangle width="50" height="20" as="alternateBounds" />
          </mxGeometry>
        </mxCell>
        <mxCell id="G3qtx_viLzdnVJc0cmcP-84" value="Key" style="shape=partialRectangle;html=1;whiteSpace=wrap;connectable=0;strokeColor=inherit;overflow=hidden;fillColor=none;top=0;left=0;bottom=0;right=0;pointerEvents=1;fontSize=16;" parent="G3qtx_viLzdnVJc0cmcP-80" vertex="1">
          <mxGeometry x="270" width="120" height="20" as="geometry">
            <mxRectangle width="120" height="20" as="alternateBounds" />
          </mxGeometry>
        </mxCell>
        <mxCell id="G3qtx_viLzdnVJc0cmcP-85" value="Default" style="shape=partialRectangle;html=1;whiteSpace=wrap;connectable=0;strokeColor=inherit;overflow=hidden;fillColor=none;top=0;left=0;bottom=0;right=0;pointerEvents=1;fontSize=16;" parent="G3qtx_viLzdnVJc0cmcP-80" vertex="1">
          <mxGeometry x="390" width="150" height="20" as="geometry">
            <mxRectangle width="150" height="20" as="alternateBounds" />
          </mxGeometry>
        </mxCell>
        <mxCell id="G3qtx_viLzdnVJc0cmcP-86" value="Extra" style="shape=partialRectangle;html=1;whiteSpace=wrap;connectable=0;strokeColor=inherit;overflow=hidden;fillColor=none;top=0;left=0;bottom=0;right=0;pointerEvents=1;fontSize=16;" parent="G3qtx_viLzdnVJc0cmcP-80" vertex="1">
          <mxGeometry x="540" width="220" height="20" as="geometry">
            <mxRectangle width="220" height="20" as="alternateBounds" />
          </mxGeometry>
        </mxCell>
        <mxCell id="G3qtx_viLzdnVJc0cmcP-180" style="shape=tableRow;horizontal=0;startSize=0;swimlaneHead=0;swimlaneBody=0;strokeColor=inherit;top=0;left=0;bottom=0;right=0;collapsible=0;dropTarget=0;fillColor=none;points=[[0,0.5],[1,0.5]];portConstraint=eastwest;fontSize=16;" parent="G3qtx_viLzdnVJc0cmcP-79" vertex="1">
          <mxGeometry y="50" width="760" height="40" as="geometry" />
        </mxCell>
        <mxCell id="G3qtx_viLzdnVJc0cmcP-181" value="id" style="shape=partialRectangle;html=1;whiteSpace=wrap;connectable=0;strokeColor=inherit;overflow=hidden;fillColor=none;top=0;left=0;bottom=0;right=0;pointerEvents=1;fontSize=16;" parent="G3qtx_viLzdnVJc0cmcP-180" vertex="1">
          <mxGeometry width="100" height="40" as="geometry">
            <mxRectangle width="100" height="40" as="alternateBounds" />
          </mxGeometry>
        </mxCell>
        <mxCell id="G3qtx_viLzdnVJc0cmcP-182" value="INT UNSIGNED" style="shape=partialRectangle;html=1;whiteSpace=wrap;connectable=0;strokeColor=inherit;overflow=hidden;fillColor=none;top=0;left=0;bottom=0;right=0;pointerEvents=1;fontSize=16;" parent="G3qtx_viLzdnVJc0cmcP-180" vertex="1">
          <mxGeometry x="100" width="120" height="40" as="geometry">
            <mxRectangle width="120" height="40" as="alternateBounds" />
          </mxGeometry>
        </mxCell>
        <mxCell id="G3qtx_viLzdnVJc0cmcP-183" value="NO" style="shape=partialRectangle;html=1;whiteSpace=wrap;connectable=0;strokeColor=inherit;overflow=hidden;fillColor=none;top=0;left=0;bottom=0;right=0;pointerEvents=1;fontSize=16;" parent="G3qtx_viLzdnVJc0cmcP-180" vertex="1">
          <mxGeometry x="220" width="50" height="40" as="geometry">
            <mxRectangle width="50" height="40" as="alternateBounds" />
          </mxGeometry>
        </mxCell>
        <mxCell id="G3qtx_viLzdnVJc0cmcP-184" value="PRIMARY KEY" style="shape=partialRectangle;html=1;whiteSpace=wrap;connectable=0;strokeColor=inherit;overflow=hidden;fillColor=none;top=0;left=0;bottom=0;right=0;pointerEvents=1;fontSize=16;" parent="G3qtx_viLzdnVJc0cmcP-180" vertex="1">
          <mxGeometry x="270" width="120" height="40" as="geometry">
            <mxRectangle width="120" height="40" as="alternateBounds" />
          </mxGeometry>
        </mxCell>
        <mxCell id="G3qtx_viLzdnVJc0cmcP-185" value="NULL" style="shape=partialRectangle;html=1;whiteSpace=wrap;connectable=0;strokeColor=inherit;overflow=hidden;fillColor=none;top=0;left=0;bottom=0;right=0;pointerEvents=1;fontSize=16;" parent="G3qtx_viLzdnVJc0cmcP-180" vertex="1">
          <mxGeometry x="390" width="150" height="40" as="geometry">
            <mxRectangle width="150" height="40" as="alternateBounds" />
          </mxGeometry>
        </mxCell>
        <mxCell id="G3qtx_viLzdnVJc0cmcP-186" value="AUTO_INCREMENT" style="shape=partialRectangle;html=1;whiteSpace=wrap;connectable=0;strokeColor=inherit;overflow=hidden;fillColor=none;top=0;left=0;bottom=0;right=0;pointerEvents=1;fontSize=16;" parent="G3qtx_viLzdnVJc0cmcP-180" vertex="1">
          <mxGeometry x="540" width="220" height="40" as="geometry">
            <mxRectangle width="220" height="40" as="alternateBounds" />
          </mxGeometry>
        </mxCell>
        <mxCell id="G3qtx_viLzdnVJc0cmcP-129" style="shape=tableRow;horizontal=0;startSize=0;swimlaneHead=0;swimlaneBody=0;strokeColor=inherit;top=0;left=0;bottom=0;right=0;collapsible=0;dropTarget=0;fillColor=none;points=[[0,0.5],[1,0.5]];portConstraint=eastwest;fontSize=16;" parent="G3qtx_viLzdnVJc0cmcP-79" vertex="1">
          <mxGeometry y="90" width="760" height="40" as="geometry" />
        </mxCell>
        <mxCell id="G3qtx_viLzdnVJc0cmcP-130" value="&lt;span style=&quot;color: rgb(0, 0, 0); font-family: Helvetica; font-size: 16px; font-style: normal; font-variant-ligatures: normal; font-variant-caps: normal; font-weight: 400; letter-spacing: normal; orphans: 2; text-align: center; text-indent: 0px; text-transform: none; widows: 2; word-spacing: 0px; -webkit-text-stroke-width: 0px; white-space: normal; background-color: rgb(251, 251, 251); text-decoration-thickness: initial; text-decoration-style: initial; text-decoration-color: initial; display: inline !important; float: none;&quot;&gt;email&lt;/span&gt;" style="shape=partialRectangle;html=1;whiteSpace=wrap;connectable=0;strokeColor=inherit;overflow=hidden;fillColor=none;top=0;left=0;bottom=0;right=0;pointerEvents=1;fontSize=16;" parent="G3qtx_viLzdnVJc0cmcP-129" vertex="1">
          <mxGeometry width="100" height="40" as="geometry">
            <mxRectangle width="100" height="40" as="alternateBounds" />
          </mxGeometry>
        </mxCell>
        <mxCell id="G3qtx_viLzdnVJc0cmcP-131" value="&lt;span style=&quot;color: rgb(0, 0, 0); font-family: Helvetica; font-size: 16px; font-style: normal; font-variant-ligatures: normal; font-variant-caps: normal; font-weight: 400; letter-spacing: normal; orphans: 2; text-align: center; text-indent: 0px; text-transform: none; widows: 2; word-spacing: 0px; -webkit-text-stroke-width: 0px; white-space: normal; background-color: rgb(251, 251, 251); text-decoration-thickness: initial; text-decoration-style: initial; text-decoration-color: initial; display: inline !important; float: none;&quot;&gt;VARCHAR(100)&lt;/span&gt;" style="shape=partialRectangle;html=1;whiteSpace=wrap;connectable=0;strokeColor=inherit;overflow=hidden;fillColor=none;top=0;left=0;bottom=0;right=0;pointerEvents=1;fontSize=16;" parent="G3qtx_viLzdnVJc0cmcP-129" vertex="1">
          <mxGeometry x="100" width="120" height="40" as="geometry">
            <mxRectangle width="120" height="40" as="alternateBounds" />
          </mxGeometry>
        </mxCell>
        <mxCell id="G3qtx_viLzdnVJc0cmcP-132" value="&lt;span style=&quot;color: rgb(0, 0, 0); font-family: Helvetica; font-size: 16px; font-style: normal; font-variant-ligatures: normal; font-variant-caps: normal; font-weight: 400; letter-spacing: normal; orphans: 2; text-align: center; text-indent: 0px; text-transform: none; widows: 2; word-spacing: 0px; -webkit-text-stroke-width: 0px; white-space: normal; background-color: rgb(251, 251, 251); text-decoration-thickness: initial; text-decoration-style: initial; text-decoration-color: initial; display: inline !important; float: none;&quot;&gt;NO&lt;/span&gt;" style="shape=partialRectangle;html=1;whiteSpace=wrap;connectable=0;strokeColor=inherit;overflow=hidden;fillColor=none;top=0;left=0;bottom=0;right=0;pointerEvents=1;fontSize=16;" parent="G3qtx_viLzdnVJc0cmcP-129" vertex="1">
          <mxGeometry x="220" width="50" height="40" as="geometry">
            <mxRectangle width="50" height="40" as="alternateBounds" />
          </mxGeometry>
        </mxCell>
        <mxCell id="G3qtx_viLzdnVJc0cmcP-133" value="" style="shape=partialRectangle;html=1;whiteSpace=wrap;connectable=0;strokeColor=inherit;overflow=hidden;fillColor=none;top=0;left=0;bottom=0;right=0;pointerEvents=1;fontSize=16;" parent="G3qtx_viLzdnVJc0cmcP-129" vertex="1">
          <mxGeometry x="270" width="120" height="40" as="geometry">
            <mxRectangle width="120" height="40" as="alternateBounds" />
          </mxGeometry>
        </mxCell>
        <mxCell id="G3qtx_viLzdnVJc0cmcP-134" value="&lt;span style=&quot;color: rgb(0, 0, 0); font-family: Helvetica; font-size: 16px; font-style: normal; font-variant-ligatures: normal; font-variant-caps: normal; font-weight: 400; letter-spacing: normal; orphans: 2; text-align: center; text-indent: 0px; text-transform: none; widows: 2; word-spacing: 0px; -webkit-text-stroke-width: 0px; white-space: normal; background-color: rgb(251, 251, 251); text-decoration-thickness: initial; text-decoration-style: initial; text-decoration-color: initial; display: inline !important; float: none;&quot;&gt;NULL&lt;/span&gt;" style="shape=partialRectangle;html=1;whiteSpace=wrap;connectable=0;strokeColor=inherit;overflow=hidden;fillColor=none;top=0;left=0;bottom=0;right=0;pointerEvents=1;fontSize=16;" parent="G3qtx_viLzdnVJc0cmcP-129" vertex="1">
          <mxGeometry x="390" width="150" height="40" as="geometry">
            <mxRectangle width="150" height="40" as="alternateBounds" />
          </mxGeometry>
        </mxCell>
        <mxCell id="G3qtx_viLzdnVJc0cmcP-135" style="shape=partialRectangle;html=1;whiteSpace=wrap;connectable=0;strokeColor=inherit;overflow=hidden;fillColor=none;top=0;left=0;bottom=0;right=0;pointerEvents=1;fontSize=16;" parent="G3qtx_viLzdnVJc0cmcP-129" vertex="1">
          <mxGeometry x="540" width="220" height="40" as="geometry">
            <mxRectangle width="220" height="40" as="alternateBounds" />
          </mxGeometry>
        </mxCell>
        <mxCell id="G3qtx_viLzdnVJc0cmcP-87" value="" style="shape=tableRow;horizontal=0;startSize=0;swimlaneHead=0;swimlaneBody=0;strokeColor=inherit;top=0;left=0;bottom=0;right=0;collapsible=0;dropTarget=0;fillColor=none;points=[[0,0.5],[1,0.5]];portConstraint=eastwest;fontSize=16;" parent="G3qtx_viLzdnVJc0cmcP-79" vertex="1">
          <mxGeometry y="130" width="760" height="40" as="geometry" />
        </mxCell>
        <mxCell id="G3qtx_viLzdnVJc0cmcP-88" value="pw" style="shape=partialRectangle;html=1;whiteSpace=wrap;connectable=0;strokeColor=inherit;overflow=hidden;fillColor=none;top=0;left=0;bottom=0;right=0;pointerEvents=1;fontSize=16;" parent="G3qtx_viLzdnVJc0cmcP-87" vertex="1">
          <mxGeometry width="100" height="40" as="geometry">
            <mxRectangle width="100" height="40" as="alternateBounds" />
          </mxGeometry>
        </mxCell>
        <mxCell id="G3qtx_viLzdnVJc0cmcP-89" value="INT&amp;nbsp;UNSIGNED" style="shape=partialRectangle;html=1;whiteSpace=wrap;connectable=0;strokeColor=inherit;overflow=hidden;fillColor=none;top=0;left=0;bottom=0;right=0;pointerEvents=1;fontSize=16;" parent="G3qtx_viLzdnVJc0cmcP-87" vertex="1">
          <mxGeometry x="100" width="120" height="40" as="geometry">
            <mxRectangle width="120" height="40" as="alternateBounds" />
          </mxGeometry>
        </mxCell>
        <mxCell id="G3qtx_viLzdnVJc0cmcP-90" value="NO" style="shape=partialRectangle;html=1;whiteSpace=wrap;connectable=0;strokeColor=inherit;overflow=hidden;fillColor=none;top=0;left=0;bottom=0;right=0;pointerEvents=1;fontSize=16;" parent="G3qtx_viLzdnVJc0cmcP-87" vertex="1">
          <mxGeometry x="220" width="50" height="40" as="geometry">
            <mxRectangle width="50" height="40" as="alternateBounds" />
          </mxGeometry>
        </mxCell>
        <mxCell id="G3qtx_viLzdnVJc0cmcP-91" value="" style="shape=partialRectangle;html=1;whiteSpace=wrap;connectable=0;strokeColor=inherit;overflow=hidden;fillColor=none;top=0;left=0;bottom=0;right=0;pointerEvents=1;fontSize=16;" parent="G3qtx_viLzdnVJc0cmcP-87" vertex="1">
          <mxGeometry x="270" width="120" height="40" as="geometry">
            <mxRectangle width="120" height="40" as="alternateBounds" />
          </mxGeometry>
        </mxCell>
        <mxCell id="G3qtx_viLzdnVJc0cmcP-92" value="&lt;span style=&quot;color: rgb(0, 0, 0); font-family: Helvetica; font-size: 16px; font-style: normal; font-variant-ligatures: normal; font-variant-caps: normal; font-weight: 400; letter-spacing: normal; orphans: 2; text-align: center; text-indent: 0px; text-transform: none; widows: 2; word-spacing: 0px; -webkit-text-stroke-width: 0px; white-space: normal; background-color: rgb(251, 251, 251); text-decoration-thickness: initial; text-decoration-style: initial; text-decoration-color: initial; float: none; display: inline !important;&quot;&gt;NULL&lt;/span&gt;" style="shape=partialRectangle;html=1;whiteSpace=wrap;connectable=0;strokeColor=inherit;overflow=hidden;fillColor=none;top=0;left=0;bottom=0;right=0;pointerEvents=1;fontSize=16;" parent="G3qtx_viLzdnVJc0cmcP-87" vertex="1">
          <mxGeometry x="390" width="150" height="40" as="geometry">
            <mxRectangle width="150" height="40" as="alternateBounds" />
          </mxGeometry>
        </mxCell>
        <mxCell id="G3qtx_viLzdnVJc0cmcP-93" value="" style="shape=partialRectangle;html=1;whiteSpace=wrap;connectable=0;strokeColor=inherit;overflow=hidden;fillColor=none;top=0;left=0;bottom=0;right=0;pointerEvents=1;fontSize=16;" parent="G3qtx_viLzdnVJc0cmcP-87" vertex="1">
          <mxGeometry x="540" width="220" height="40" as="geometry">
            <mxRectangle width="220" height="40" as="alternateBounds" />
          </mxGeometry>
        </mxCell>
        <mxCell id="G3qtx_viLzdnVJc0cmcP-94" value="" style="shape=tableRow;horizontal=0;startSize=0;swimlaneHead=0;swimlaneBody=0;strokeColor=inherit;top=0;left=0;bottom=0;right=0;collapsible=0;dropTarget=0;fillColor=none;points=[[0,0.5],[1,0.5]];portConstraint=eastwest;fontSize=16;" parent="G3qtx_viLzdnVJc0cmcP-79" vertex="1">
          <mxGeometry y="170" width="760" height="40" as="geometry" />
        </mxCell>
        <mxCell id="G3qtx_viLzdnVJc0cmcP-95" value="nick" style="shape=partialRectangle;html=1;whiteSpace=wrap;connectable=0;strokeColor=inherit;overflow=hidden;fillColor=none;top=0;left=0;bottom=0;right=0;pointerEvents=1;fontSize=16;" parent="G3qtx_viLzdnVJc0cmcP-94" vertex="1">
          <mxGeometry width="100" height="40" as="geometry">
            <mxRectangle width="100" height="40" as="alternateBounds" />
          </mxGeometry>
        </mxCell>
        <mxCell id="G3qtx_viLzdnVJc0cmcP-96" value="INT&amp;nbsp;UNSIGNED" style="shape=partialRectangle;html=1;whiteSpace=wrap;connectable=0;strokeColor=inherit;overflow=hidden;fillColor=none;top=0;left=0;bottom=0;right=0;pointerEvents=1;fontSize=16;" parent="G3qtx_viLzdnVJc0cmcP-94" vertex="1">
          <mxGeometry x="100" width="120" height="40" as="geometry">
            <mxRectangle width="120" height="40" as="alternateBounds" />
          </mxGeometry>
        </mxCell>
        <mxCell id="G3qtx_viLzdnVJc0cmcP-97" value="&lt;span style=&quot;color: rgb(0, 0, 0); font-family: Helvetica; font-size: 16px; font-style: normal; font-variant-ligatures: normal; font-variant-caps: normal; font-weight: 400; letter-spacing: normal; orphans: 2; text-align: center; text-indent: 0px; text-transform: none; widows: 2; word-spacing: 0px; -webkit-text-stroke-width: 0px; white-space: normal; background-color: rgb(251, 251, 251); text-decoration-thickness: initial; text-decoration-style: initial; text-decoration-color: initial; float: none; display: inline !important;&quot;&gt;NO&lt;/span&gt;" style="shape=partialRectangle;html=1;whiteSpace=wrap;connectable=0;strokeColor=inherit;overflow=hidden;fillColor=none;top=0;left=0;bottom=0;right=0;pointerEvents=1;fontSize=16;" parent="G3qtx_viLzdnVJc0cmcP-94" vertex="1">
          <mxGeometry x="220" width="50" height="40" as="geometry">
            <mxRectangle width="50" height="40" as="alternateBounds" />
          </mxGeometry>
        </mxCell>
        <mxCell id="G3qtx_viLzdnVJc0cmcP-98" value="" style="shape=partialRectangle;html=1;whiteSpace=wrap;connectable=0;strokeColor=inherit;overflow=hidden;fillColor=none;top=0;left=0;bottom=0;right=0;pointerEvents=1;fontSize=16;" parent="G3qtx_viLzdnVJc0cmcP-94" vertex="1">
          <mxGeometry x="270" width="120" height="40" as="geometry">
            <mxRectangle width="120" height="40" as="alternateBounds" />
          </mxGeometry>
        </mxCell>
        <mxCell id="G3qtx_viLzdnVJc0cmcP-99" value="&lt;span style=&quot;color: rgb(0, 0, 0); font-family: Helvetica; font-size: 16px; font-style: normal; font-variant-ligatures: normal; font-variant-caps: normal; font-weight: 400; letter-spacing: normal; orphans: 2; text-align: center; text-indent: 0px; text-transform: none; widows: 2; word-spacing: 0px; -webkit-text-stroke-width: 0px; white-space: normal; background-color: rgb(251, 251, 251); text-decoration-thickness: initial; text-decoration-style: initial; text-decoration-color: initial; float: none; display: inline !important;&quot;&gt;NULL&lt;/span&gt;" style="shape=partialRectangle;html=1;whiteSpace=wrap;connectable=0;strokeColor=inherit;overflow=hidden;fillColor=none;top=0;left=0;bottom=0;right=0;pointerEvents=1;fontSize=16;" parent="G3qtx_viLzdnVJc0cmcP-94" vertex="1">
          <mxGeometry x="390" width="150" height="40" as="geometry">
            <mxRectangle width="150" height="40" as="alternateBounds" />
          </mxGeometry>
        </mxCell>
        <mxCell id="G3qtx_viLzdnVJc0cmcP-100" style="shape=partialRectangle;html=1;whiteSpace=wrap;connectable=0;strokeColor=inherit;overflow=hidden;fillColor=none;top=0;left=0;bottom=0;right=0;pointerEvents=1;fontSize=16;" parent="G3qtx_viLzdnVJc0cmcP-94" vertex="1">
          <mxGeometry x="540" width="220" height="40" as="geometry">
            <mxRectangle width="220" height="40" as="alternateBounds" />
          </mxGeometry>
        </mxCell>
        <mxCell id="G3qtx_viLzdnVJc0cmcP-192" style="shape=tableRow;horizontal=0;startSize=0;swimlaneHead=0;swimlaneBody=0;strokeColor=inherit;top=0;left=0;bottom=0;right=0;collapsible=0;dropTarget=0;fillColor=none;points=[[0,0.5],[1,0.5]];portConstraint=eastwest;fontSize=16;" parent="G3qtx_viLzdnVJc0cmcP-79" vertex="1">
          <mxGeometry y="210" width="760" height="40" as="geometry" />
        </mxCell>
        <mxCell id="G3qtx_viLzdnVJc0cmcP-193" value="createdAt" style="shape=partialRectangle;html=1;whiteSpace=wrap;connectable=0;strokeColor=inherit;overflow=hidden;fillColor=none;top=0;left=0;bottom=0;right=0;pointerEvents=1;fontSize=16;" parent="G3qtx_viLzdnVJc0cmcP-192" vertex="1">
          <mxGeometry width="100" height="40" as="geometry">
            <mxRectangle width="100" height="40" as="alternateBounds" />
          </mxGeometry>
        </mxCell>
        <mxCell id="G3qtx_viLzdnVJc0cmcP-194" value="DATETIME" style="shape=partialRectangle;html=1;whiteSpace=wrap;connectable=0;strokeColor=inherit;overflow=hidden;fillColor=none;top=0;left=0;bottom=0;right=0;pointerEvents=1;fontSize=16;" parent="G3qtx_viLzdnVJc0cmcP-192" vertex="1">
          <mxGeometry x="100" width="120" height="40" as="geometry">
            <mxRectangle width="120" height="40" as="alternateBounds" />
          </mxGeometry>
        </mxCell>
        <mxCell id="G3qtx_viLzdnVJc0cmcP-195" value="NO" style="shape=partialRectangle;html=1;whiteSpace=wrap;connectable=0;strokeColor=inherit;overflow=hidden;fillColor=none;top=0;left=0;bottom=0;right=0;pointerEvents=1;fontSize=16;" parent="G3qtx_viLzdnVJc0cmcP-192" vertex="1">
          <mxGeometry x="220" width="50" height="40" as="geometry">
            <mxRectangle width="50" height="40" as="alternateBounds" />
          </mxGeometry>
        </mxCell>
        <mxCell id="G3qtx_viLzdnVJc0cmcP-196" style="shape=partialRectangle;html=1;whiteSpace=wrap;connectable=0;strokeColor=inherit;overflow=hidden;fillColor=none;top=0;left=0;bottom=0;right=0;pointerEvents=1;fontSize=16;" parent="G3qtx_viLzdnVJc0cmcP-192" vertex="1">
          <mxGeometry x="270" width="120" height="40" as="geometry">
            <mxRectangle width="120" height="40" as="alternateBounds" />
          </mxGeometry>
        </mxCell>
        <mxCell id="G3qtx_viLzdnVJc0cmcP-197" value="DATE NOW()" style="shape=partialRectangle;html=1;whiteSpace=wrap;connectable=0;strokeColor=inherit;overflow=hidden;fillColor=none;top=0;left=0;bottom=0;right=0;pointerEvents=1;fontSize=16;" parent="G3qtx_viLzdnVJc0cmcP-192" vertex="1">
          <mxGeometry x="390" width="150" height="40" as="geometry">
            <mxRectangle width="150" height="40" as="alternateBounds" />
          </mxGeometry>
        </mxCell>
        <mxCell id="G3qtx_viLzdnVJc0cmcP-198" value="" style="shape=partialRectangle;html=1;whiteSpace=wrap;connectable=0;strokeColor=inherit;overflow=hidden;fillColor=none;top=0;left=0;bottom=0;right=0;pointerEvents=1;fontSize=16;" parent="G3qtx_viLzdnVJc0cmcP-192" vertex="1">
          <mxGeometry x="540" width="220" height="40" as="geometry">
            <mxRectangle width="220" height="40" as="alternateBounds" />
          </mxGeometry>
        </mxCell>
        <mxCell id="G3qtx_viLzdnVJc0cmcP-199" style="shape=tableRow;horizontal=0;startSize=0;swimlaneHead=0;swimlaneBody=0;strokeColor=inherit;top=0;left=0;bottom=0;right=0;collapsible=0;dropTarget=0;fillColor=none;points=[[0,0.5],[1,0.5]];portConstraint=eastwest;fontSize=16;" parent="G3qtx_viLzdnVJc0cmcP-79" vertex="1">
          <mxGeometry y="250" width="760" height="40" as="geometry" />
        </mxCell>
        <mxCell id="G3qtx_viLzdnVJc0cmcP-200" value="deletedAt" style="shape=partialRectangle;html=1;whiteSpace=wrap;connectable=0;strokeColor=inherit;overflow=hidden;fillColor=none;top=0;left=0;bottom=0;right=0;pointerEvents=1;fontSize=16;" parent="G3qtx_viLzdnVJc0cmcP-199" vertex="1">
          <mxGeometry width="100" height="40" as="geometry">
            <mxRectangle width="100" height="40" as="alternateBounds" />
          </mxGeometry>
        </mxCell>
        <mxCell id="G3qtx_viLzdnVJc0cmcP-201" value="DATETIME" style="shape=partialRectangle;html=1;whiteSpace=wrap;connectable=0;strokeColor=inherit;overflow=hidden;fillColor=none;top=0;left=0;bottom=0;right=0;pointerEvents=1;fontSize=16;" parent="G3qtx_viLzdnVJc0cmcP-199" vertex="1">
          <mxGeometry x="100" width="120" height="40" as="geometry">
            <mxRectangle width="120" height="40" as="alternateBounds" />
          </mxGeometry>
        </mxCell>
        <mxCell id="G3qtx_viLzdnVJc0cmcP-202" value="YES" style="shape=partialRectangle;html=1;whiteSpace=wrap;connectable=0;strokeColor=inherit;overflow=hidden;fillColor=none;top=0;left=0;bottom=0;right=0;pointerEvents=1;fontSize=16;" parent="G3qtx_viLzdnVJc0cmcP-199" vertex="1">
          <mxGeometry x="220" width="50" height="40" as="geometry">
            <mxRectangle width="50" height="40" as="alternateBounds" />
          </mxGeometry>
        </mxCell>
        <mxCell id="G3qtx_viLzdnVJc0cmcP-203" style="shape=partialRectangle;html=1;whiteSpace=wrap;connectable=0;strokeColor=inherit;overflow=hidden;fillColor=none;top=0;left=0;bottom=0;right=0;pointerEvents=1;fontSize=16;" parent="G3qtx_viLzdnVJc0cmcP-199" vertex="1">
          <mxGeometry x="270" width="120" height="40" as="geometry">
            <mxRectangle width="120" height="40" as="alternateBounds" />
          </mxGeometry>
        </mxCell>
        <mxCell id="G3qtx_viLzdnVJc0cmcP-204" value="DATE NOW()" style="shape=partialRectangle;html=1;whiteSpace=wrap;connectable=0;strokeColor=inherit;overflow=hidden;fillColor=none;top=0;left=0;bottom=0;right=0;pointerEvents=1;fontSize=16;" parent="G3qtx_viLzdnVJc0cmcP-199" vertex="1">
          <mxGeometry x="390" width="150" height="40" as="geometry">
            <mxRectangle width="150" height="40" as="alternateBounds" />
          </mxGeometry>
        </mxCell>
        <mxCell id="G3qtx_viLzdnVJc0cmcP-205" value="" style="shape=partialRectangle;html=1;whiteSpace=wrap;connectable=0;strokeColor=inherit;overflow=hidden;fillColor=none;top=0;left=0;bottom=0;right=0;pointerEvents=1;fontSize=16;" parent="G3qtx_viLzdnVJc0cmcP-199" vertex="1">
          <mxGeometry x="540" width="220" height="40" as="geometry">
            <mxRectangle width="220" height="40" as="alternateBounds" />
          </mxGeometry>
        </mxCell>
        <mxCell id="G3qtx_viLzdnVJc0cmcP-136" value="rooms" style="shape=table;startSize=30;container=1;collapsible=0;childLayout=tableLayout;strokeColor=default;fontSize=16;" parent="G3qtx_viLzdnVJc0cmcP-47" vertex="1">
          <mxGeometry x="940" y="150" width="760" height="340.99999999999955" as="geometry" />
        </mxCell>
        <mxCell id="G3qtx_viLzdnVJc0cmcP-137" value="" style="shape=tableRow;horizontal=0;startSize=0;swimlaneHead=0;swimlaneBody=0;strokeColor=inherit;top=0;left=0;bottom=0;right=0;collapsible=0;dropTarget=0;fillColor=none;points=[[0,0.5],[1,0.5]];portConstraint=eastwest;fontSize=16;" parent="G3qtx_viLzdnVJc0cmcP-136" vertex="1">
          <mxGeometry y="30" width="760" height="35" as="geometry" />
        </mxCell>
        <mxCell id="G3qtx_viLzdnVJc0cmcP-138" value="Field" style="shape=partialRectangle;html=1;whiteSpace=wrap;connectable=0;strokeColor=inherit;overflow=hidden;fillColor=none;top=0;left=0;bottom=0;right=0;pointerEvents=1;fontSize=16;" parent="G3qtx_viLzdnVJc0cmcP-137" vertex="1">
          <mxGeometry width="100" height="35" as="geometry">
            <mxRectangle width="100" height="35" as="alternateBounds" />
          </mxGeometry>
        </mxCell>
        <mxCell id="G3qtx_viLzdnVJc0cmcP-139" value="Type" style="shape=partialRectangle;html=1;whiteSpace=wrap;connectable=0;strokeColor=inherit;overflow=hidden;fillColor=none;top=0;left=0;bottom=0;right=0;pointerEvents=1;fontSize=16;" parent="G3qtx_viLzdnVJc0cmcP-137" vertex="1">
          <mxGeometry x="100" width="120" height="35" as="geometry">
            <mxRectangle width="120" height="35" as="alternateBounds" />
          </mxGeometry>
        </mxCell>
        <mxCell id="G3qtx_viLzdnVJc0cmcP-140" value="Null" style="shape=partialRectangle;html=1;whiteSpace=wrap;connectable=0;strokeColor=inherit;overflow=hidden;fillColor=none;top=0;left=0;bottom=0;right=0;pointerEvents=1;fontSize=16;" parent="G3qtx_viLzdnVJc0cmcP-137" vertex="1">
          <mxGeometry x="220" width="50" height="35" as="geometry">
            <mxRectangle width="50" height="35" as="alternateBounds" />
          </mxGeometry>
        </mxCell>
        <mxCell id="G3qtx_viLzdnVJc0cmcP-141" value="Key" style="shape=partialRectangle;html=1;whiteSpace=wrap;connectable=0;strokeColor=inherit;overflow=hidden;fillColor=none;top=0;left=0;bottom=0;right=0;pointerEvents=1;fontSize=16;" parent="G3qtx_viLzdnVJc0cmcP-137" vertex="1">
          <mxGeometry x="270" width="120" height="35" as="geometry">
            <mxRectangle width="120" height="35" as="alternateBounds" />
          </mxGeometry>
        </mxCell>
        <mxCell id="G3qtx_viLzdnVJc0cmcP-142" value="Default" style="shape=partialRectangle;html=1;whiteSpace=wrap;connectable=0;strokeColor=inherit;overflow=hidden;fillColor=none;top=0;left=0;bottom=0;right=0;pointerEvents=1;fontSize=16;" parent="G3qtx_viLzdnVJc0cmcP-137" vertex="1">
          <mxGeometry x="390" width="150" height="35" as="geometry">
            <mxRectangle width="150" height="35" as="alternateBounds" />
          </mxGeometry>
        </mxCell>
        <mxCell id="G3qtx_viLzdnVJc0cmcP-143" value="Extra" style="shape=partialRectangle;html=1;whiteSpace=wrap;connectable=0;strokeColor=inherit;overflow=hidden;fillColor=none;top=0;left=0;bottom=0;right=0;pointerEvents=1;fontSize=16;" parent="G3qtx_viLzdnVJc0cmcP-137" vertex="1">
          <mxGeometry x="540" width="220" height="35" as="geometry">
            <mxRectangle width="220" height="35" as="alternateBounds" />
          </mxGeometry>
        </mxCell>
        <mxCell id="G3qtx_viLzdnVJc0cmcP-172" style="shape=tableRow;horizontal=0;startSize=0;swimlaneHead=0;swimlaneBody=0;strokeColor=inherit;top=0;left=0;bottom=0;right=0;collapsible=0;dropTarget=0;fillColor=none;points=[[0,0.5],[1,0.5]];portConstraint=eastwest;fontSize=16;" parent="G3qtx_viLzdnVJc0cmcP-136" vertex="1">
          <mxGeometry y="65" width="760" height="45" as="geometry" />
        </mxCell>
        <mxCell id="G3qtx_viLzdnVJc0cmcP-173" value="id" style="shape=partialRectangle;html=1;whiteSpace=wrap;connectable=0;strokeColor=inherit;overflow=hidden;fillColor=none;top=0;left=0;bottom=0;right=0;pointerEvents=1;fontSize=16;" parent="G3qtx_viLzdnVJc0cmcP-172" vertex="1">
          <mxGeometry width="100" height="45" as="geometry">
            <mxRectangle width="100" height="45" as="alternateBounds" />
          </mxGeometry>
        </mxCell>
        <mxCell id="G3qtx_viLzdnVJc0cmcP-174" value="INT UNSIGNED" style="shape=partialRectangle;html=1;whiteSpace=wrap;connectable=0;strokeColor=inherit;overflow=hidden;fillColor=none;top=0;left=0;bottom=0;right=0;pointerEvents=1;fontSize=16;" parent="G3qtx_viLzdnVJc0cmcP-172" vertex="1">
          <mxGeometry x="100" width="120" height="45" as="geometry">
            <mxRectangle width="120" height="45" as="alternateBounds" />
          </mxGeometry>
        </mxCell>
        <mxCell id="G3qtx_viLzdnVJc0cmcP-175" value="NO" style="shape=partialRectangle;html=1;whiteSpace=wrap;connectable=0;strokeColor=inherit;overflow=hidden;fillColor=none;top=0;left=0;bottom=0;right=0;pointerEvents=1;fontSize=16;" parent="G3qtx_viLzdnVJc0cmcP-172" vertex="1">
          <mxGeometry x="220" width="50" height="45" as="geometry">
            <mxRectangle width="50" height="45" as="alternateBounds" />
          </mxGeometry>
        </mxCell>
        <mxCell id="G3qtx_viLzdnVJc0cmcP-176" value="PRIMARY KEY" style="shape=partialRectangle;html=1;whiteSpace=wrap;connectable=0;strokeColor=inherit;overflow=hidden;fillColor=none;top=0;left=0;bottom=0;right=0;pointerEvents=1;fontSize=16;" parent="G3qtx_viLzdnVJc0cmcP-172" vertex="1">
          <mxGeometry x="270" width="120" height="45" as="geometry">
            <mxRectangle width="120" height="45" as="alternateBounds" />
          </mxGeometry>
        </mxCell>
        <mxCell id="G3qtx_viLzdnVJc0cmcP-177" value="NULL" style="shape=partialRectangle;html=1;whiteSpace=wrap;connectable=0;strokeColor=inherit;overflow=hidden;fillColor=none;top=0;left=0;bottom=0;right=0;pointerEvents=1;fontSize=16;" parent="G3qtx_viLzdnVJc0cmcP-172" vertex="1">
          <mxGeometry x="390" width="150" height="45" as="geometry">
            <mxRectangle width="150" height="45" as="alternateBounds" />
          </mxGeometry>
        </mxCell>
        <mxCell id="G3qtx_viLzdnVJc0cmcP-178" value="AUTO_INCREMENT" style="shape=partialRectangle;html=1;whiteSpace=wrap;connectable=0;strokeColor=inherit;overflow=hidden;fillColor=none;top=0;left=0;bottom=0;right=0;pointerEvents=1;fontSize=16;" parent="G3qtx_viLzdnVJc0cmcP-172" vertex="1">
          <mxGeometry x="540" width="220" height="45" as="geometry">
            <mxRectangle width="220" height="45" as="alternateBounds" />
          </mxGeometry>
        </mxCell>
        <mxCell id="G3qtx_viLzdnVJc0cmcP-144" style="shape=tableRow;horizontal=0;startSize=0;swimlaneHead=0;swimlaneBody=0;strokeColor=inherit;top=0;left=0;bottom=0;right=0;collapsible=0;dropTarget=0;fillColor=none;points=[[0,0.5],[1,0.5]];portConstraint=eastwest;fontSize=16;" parent="G3qtx_viLzdnVJc0cmcP-136" vertex="1">
          <mxGeometry y="110" width="760" height="45" as="geometry" />
        </mxCell>
        <mxCell id="G3qtx_viLzdnVJc0cmcP-145" value="user_id" style="shape=partialRectangle;html=1;whiteSpace=wrap;connectable=0;strokeColor=inherit;overflow=hidden;fillColor=none;top=0;left=0;bottom=0;right=0;pointerEvents=1;fontSize=16;" parent="G3qtx_viLzdnVJc0cmcP-144" vertex="1">
          <mxGeometry width="100" height="45" as="geometry">
            <mxRectangle width="100" height="45" as="alternateBounds" />
          </mxGeometry>
        </mxCell>
        <mxCell id="G3qtx_viLzdnVJc0cmcP-146" value="&lt;span style=&quot;color: rgb(0, 0, 0); font-family: Helvetica; font-size: 16px; font-style: normal; font-variant-ligatures: normal; font-variant-caps: normal; font-weight: 400; letter-spacing: normal; orphans: 2; text-align: center; text-indent: 0px; text-transform: none; widows: 2; word-spacing: 0px; -webkit-text-stroke-width: 0px; white-space: normal; background-color: rgb(251, 251, 251); text-decoration-thickness: initial; text-decoration-style: initial; text-decoration-color: initial; display: inline !important; float: none;&quot;&gt;VARCHAR(100)&lt;/span&gt;" style="shape=partialRectangle;html=1;whiteSpace=wrap;connectable=0;strokeColor=inherit;overflow=hidden;fillColor=none;top=0;left=0;bottom=0;right=0;pointerEvents=1;fontSize=16;" parent="G3qtx_viLzdnVJc0cmcP-144" vertex="1">
          <mxGeometry x="100" width="120" height="45" as="geometry">
            <mxRectangle width="120" height="45" as="alternateBounds" />
          </mxGeometry>
        </mxCell>
        <mxCell id="G3qtx_viLzdnVJc0cmcP-147" value="&lt;span style=&quot;color: rgb(0, 0, 0); font-family: Helvetica; font-size: 16px; font-style: normal; font-variant-ligatures: normal; font-variant-caps: normal; font-weight: 400; letter-spacing: normal; orphans: 2; text-align: center; text-indent: 0px; text-transform: none; widows: 2; word-spacing: 0px; -webkit-text-stroke-width: 0px; white-space: normal; background-color: rgb(251, 251, 251); text-decoration-thickness: initial; text-decoration-style: initial; text-decoration-color: initial; display: inline !important; float: none;&quot;&gt;NO&lt;/span&gt;" style="shape=partialRectangle;html=1;whiteSpace=wrap;connectable=0;strokeColor=inherit;overflow=hidden;fillColor=none;top=0;left=0;bottom=0;right=0;pointerEvents=1;fontSize=16;" parent="G3qtx_viLzdnVJc0cmcP-144" vertex="1">
          <mxGeometry x="220" width="50" height="45" as="geometry">
            <mxRectangle width="50" height="45" as="alternateBounds" />
          </mxGeometry>
        </mxCell>
        <mxCell id="G3qtx_viLzdnVJc0cmcP-148" value="FOREIGN KEY" style="shape=partialRectangle;html=1;whiteSpace=wrap;connectable=0;strokeColor=inherit;overflow=hidden;fillColor=none;top=0;left=0;bottom=0;right=0;pointerEvents=1;fontSize=16;" parent="G3qtx_viLzdnVJc0cmcP-144" vertex="1">
          <mxGeometry x="270" width="120" height="45" as="geometry">
            <mxRectangle width="120" height="45" as="alternateBounds" />
          </mxGeometry>
        </mxCell>
        <mxCell id="G3qtx_viLzdnVJc0cmcP-149" value="&lt;span style=&quot;color: rgb(0, 0, 0); font-family: Helvetica; font-size: 16px; font-style: normal; font-variant-ligatures: normal; font-variant-caps: normal; font-weight: 400; letter-spacing: normal; orphans: 2; text-align: center; text-indent: 0px; text-transform: none; widows: 2; word-spacing: 0px; -webkit-text-stroke-width: 0px; white-space: normal; background-color: rgb(251, 251, 251); text-decoration-thickness: initial; text-decoration-style: initial; text-decoration-color: initial; display: inline !important; float: none;&quot;&gt;NULL&lt;/span&gt;" style="shape=partialRectangle;html=1;whiteSpace=wrap;connectable=0;strokeColor=inherit;overflow=hidden;fillColor=none;top=0;left=0;bottom=0;right=0;pointerEvents=1;fontSize=16;" parent="G3qtx_viLzdnVJc0cmcP-144" vertex="1">
          <mxGeometry x="390" width="150" height="45" as="geometry">
            <mxRectangle width="150" height="45" as="alternateBounds" />
          </mxGeometry>
        </mxCell>
        <mxCell id="G3qtx_viLzdnVJc0cmcP-150" style="shape=partialRectangle;html=1;whiteSpace=wrap;connectable=0;strokeColor=inherit;overflow=hidden;fillColor=none;top=0;left=0;bottom=0;right=0;pointerEvents=1;fontSize=16;" parent="G3qtx_viLzdnVJc0cmcP-144" vertex="1">
          <mxGeometry x="540" width="220" height="45" as="geometry">
            <mxRectangle width="220" height="45" as="alternateBounds" />
          </mxGeometry>
        </mxCell>
        <mxCell id="G3qtx_viLzdnVJc0cmcP-151" value="" style="shape=tableRow;horizontal=0;startSize=0;swimlaneHead=0;swimlaneBody=0;strokeColor=inherit;top=0;left=0;bottom=0;right=0;collapsible=0;dropTarget=0;fillColor=none;points=[[0,0.5],[1,0.5]];portConstraint=eastwest;fontSize=16;" parent="G3qtx_viLzdnVJc0cmcP-136" vertex="1">
          <mxGeometry y="155" width="760" height="34" as="geometry" />
        </mxCell>
        <mxCell id="G3qtx_viLzdnVJc0cmcP-152" value="title" style="shape=partialRectangle;html=1;whiteSpace=wrap;connectable=0;strokeColor=inherit;overflow=hidden;fillColor=none;top=0;left=0;bottom=0;right=0;pointerEvents=1;fontSize=16;" parent="G3qtx_viLzdnVJc0cmcP-151" vertex="1">
          <mxGeometry width="100" height="34" as="geometry">
            <mxRectangle width="100" height="34" as="alternateBounds" />
          </mxGeometry>
        </mxCell>
        <mxCell id="G3qtx_viLzdnVJc0cmcP-153" value="VARCHAR(50)" style="shape=partialRectangle;html=1;whiteSpace=wrap;connectable=0;strokeColor=inherit;overflow=hidden;fillColor=none;top=0;left=0;bottom=0;right=0;pointerEvents=1;fontSize=16;" parent="G3qtx_viLzdnVJc0cmcP-151" vertex="1">
          <mxGeometry x="100" width="120" height="34" as="geometry">
            <mxRectangle width="120" height="34" as="alternateBounds" />
          </mxGeometry>
        </mxCell>
        <mxCell id="G3qtx_viLzdnVJc0cmcP-154" value="NO" style="shape=partialRectangle;html=1;whiteSpace=wrap;connectable=0;strokeColor=inherit;overflow=hidden;fillColor=none;top=0;left=0;bottom=0;right=0;pointerEvents=1;fontSize=16;" parent="G3qtx_viLzdnVJc0cmcP-151" vertex="1">
          <mxGeometry x="220" width="50" height="34" as="geometry">
            <mxRectangle width="50" height="34" as="alternateBounds" />
          </mxGeometry>
        </mxCell>
        <mxCell id="G3qtx_viLzdnVJc0cmcP-155" value="" style="shape=partialRectangle;html=1;whiteSpace=wrap;connectable=0;strokeColor=inherit;overflow=hidden;fillColor=none;top=0;left=0;bottom=0;right=0;pointerEvents=1;fontSize=16;" parent="G3qtx_viLzdnVJc0cmcP-151" vertex="1">
          <mxGeometry x="270" width="120" height="34" as="geometry">
            <mxRectangle width="120" height="34" as="alternateBounds" />
          </mxGeometry>
        </mxCell>
        <mxCell id="G3qtx_viLzdnVJc0cmcP-156" value="&lt;span style=&quot;color: rgb(0, 0, 0); font-family: Helvetica; font-size: 16px; font-style: normal; font-variant-ligatures: normal; font-variant-caps: normal; font-weight: 400; letter-spacing: normal; orphans: 2; text-align: center; text-indent: 0px; text-transform: none; widows: 2; word-spacing: 0px; -webkit-text-stroke-width: 0px; white-space: normal; background-color: rgb(251, 251, 251); text-decoration-thickness: initial; text-decoration-style: initial; text-decoration-color: initial; float: none; display: inline !important;&quot;&gt;NULL&lt;/span&gt;" style="shape=partialRectangle;html=1;whiteSpace=wrap;connectable=0;strokeColor=inherit;overflow=hidden;fillColor=none;top=0;left=0;bottom=0;right=0;pointerEvents=1;fontSize=16;" parent="G3qtx_viLzdnVJc0cmcP-151" vertex="1">
          <mxGeometry x="390" width="150" height="34" as="geometry">
            <mxRectangle width="150" height="34" as="alternateBounds" />
          </mxGeometry>
        </mxCell>
        <mxCell id="G3qtx_viLzdnVJc0cmcP-157" value="" style="shape=partialRectangle;html=1;whiteSpace=wrap;connectable=0;strokeColor=inherit;overflow=hidden;fillColor=none;top=0;left=0;bottom=0;right=0;pointerEvents=1;fontSize=16;" parent="G3qtx_viLzdnVJc0cmcP-151" vertex="1">
          <mxGeometry x="540" width="220" height="34" as="geometry">
            <mxRectangle width="220" height="34" as="alternateBounds" />
          </mxGeometry>
        </mxCell>
        <mxCell id="G3qtx_viLzdnVJc0cmcP-158" value="" style="shape=tableRow;horizontal=0;startSize=0;swimlaneHead=0;swimlaneBody=0;strokeColor=inherit;top=0;left=0;bottom=0;right=0;collapsible=0;dropTarget=0;fillColor=none;points=[[0,0.5],[1,0.5]];portConstraint=eastwest;fontSize=16;" parent="G3qtx_viLzdnVJc0cmcP-136" vertex="1">
          <mxGeometry y="189" width="760" height="70" as="geometry" />
        </mxCell>
        <mxCell id="G3qtx_viLzdnVJc0cmcP-159" value="tag" style="shape=partialRectangle;html=1;whiteSpace=wrap;connectable=0;strokeColor=inherit;overflow=hidden;fillColor=none;top=0;left=0;bottom=0;right=0;pointerEvents=1;fontSize=16;" parent="G3qtx_viLzdnVJc0cmcP-158" vertex="1">
          <mxGeometry width="100" height="70" as="geometry">
            <mxRectangle width="100" height="70" as="alternateBounds" />
          </mxGeometry>
        </mxCell>
        <mxCell id="G3qtx_viLzdnVJc0cmcP-160" value="SET(&#39;찬반토론&#39;, &#39;정보&#39;,&#39;친목수다&#39;)" style="shape=partialRectangle;html=1;whiteSpace=wrap;connectable=0;strokeColor=inherit;overflow=hidden;fillColor=none;top=0;left=0;bottom=0;right=0;pointerEvents=1;fontSize=16;" parent="G3qtx_viLzdnVJc0cmcP-158" vertex="1">
          <mxGeometry x="100" width="120" height="70" as="geometry">
            <mxRectangle width="120" height="70" as="alternateBounds" />
          </mxGeometry>
        </mxCell>
        <mxCell id="G3qtx_viLzdnVJc0cmcP-161" value="&lt;span style=&quot;color: rgb(0, 0, 0); font-family: Helvetica; font-size: 16px; font-style: normal; font-variant-ligatures: normal; font-variant-caps: normal; font-weight: 400; letter-spacing: normal; orphans: 2; text-align: center; text-indent: 0px; text-transform: none; widows: 2; word-spacing: 0px; -webkit-text-stroke-width: 0px; white-space: normal; background-color: rgb(251, 251, 251); text-decoration-thickness: initial; text-decoration-style: initial; text-decoration-color: initial; float: none; display: inline !important;&quot;&gt;NO&lt;/span&gt;" style="shape=partialRectangle;html=1;whiteSpace=wrap;connectable=0;strokeColor=inherit;overflow=hidden;fillColor=none;top=0;left=0;bottom=0;right=0;pointerEvents=1;fontSize=16;" parent="G3qtx_viLzdnVJc0cmcP-158" vertex="1">
          <mxGeometry x="220" width="50" height="70" as="geometry">
            <mxRectangle width="50" height="70" as="alternateBounds" />
          </mxGeometry>
        </mxCell>
        <mxCell id="G3qtx_viLzdnVJc0cmcP-162" value="" style="shape=partialRectangle;html=1;whiteSpace=wrap;connectable=0;strokeColor=inherit;overflow=hidden;fillColor=none;top=0;left=0;bottom=0;right=0;pointerEvents=1;fontSize=16;" parent="G3qtx_viLzdnVJc0cmcP-158" vertex="1">
          <mxGeometry x="270" width="120" height="70" as="geometry">
            <mxRectangle width="120" height="70" as="alternateBounds" />
          </mxGeometry>
        </mxCell>
        <mxCell id="G3qtx_viLzdnVJc0cmcP-163" value="&lt;span style=&quot;color: rgb(0, 0, 0); font-family: Helvetica; font-size: 16px; font-style: normal; font-variant-ligatures: normal; font-variant-caps: normal; font-weight: 400; letter-spacing: normal; orphans: 2; text-align: center; text-indent: 0px; text-transform: none; widows: 2; word-spacing: 0px; -webkit-text-stroke-width: 0px; white-space: normal; background-color: rgb(251, 251, 251); text-decoration-thickness: initial; text-decoration-style: initial; text-decoration-color: initial; float: none; display: inline !important;&quot;&gt;NULL&lt;/span&gt;" style="shape=partialRectangle;html=1;whiteSpace=wrap;connectable=0;strokeColor=inherit;overflow=hidden;fillColor=none;top=0;left=0;bottom=0;right=0;pointerEvents=1;fontSize=16;" parent="G3qtx_viLzdnVJc0cmcP-158" vertex="1">
          <mxGeometry x="390" width="150" height="70" as="geometry">
            <mxRectangle width="150" height="70" as="alternateBounds" />
          </mxGeometry>
        </mxCell>
        <mxCell id="G3qtx_viLzdnVJc0cmcP-164" style="shape=partialRectangle;html=1;whiteSpace=wrap;connectable=0;strokeColor=inherit;overflow=hidden;fillColor=none;top=0;left=0;bottom=0;right=0;pointerEvents=1;fontSize=16;" parent="G3qtx_viLzdnVJc0cmcP-158" vertex="1">
          <mxGeometry x="540" width="220" height="70" as="geometry">
            <mxRectangle width="220" height="70" as="alternateBounds" />
          </mxGeometry>
        </mxCell>
        <mxCell id="yPdwGWun_YZ4TnLHKPqg-39" style="shape=tableRow;horizontal=0;startSize=0;swimlaneHead=0;swimlaneBody=0;strokeColor=inherit;top=0;left=0;bottom=0;right=0;collapsible=0;dropTarget=0;fillColor=none;points=[[0,0.5],[1,0.5]];portConstraint=eastwest;fontSize=16;" parent="G3qtx_viLzdnVJc0cmcP-136" vertex="1">
          <mxGeometry y="259" width="760" height="41" as="geometry" />
        </mxCell>
        <mxCell id="yPdwGWun_YZ4TnLHKPqg-40" value="createdAt" style="shape=partialRectangle;html=1;whiteSpace=wrap;connectable=0;strokeColor=inherit;overflow=hidden;fillColor=none;top=0;left=0;bottom=0;right=0;pointerEvents=1;fontSize=16;" parent="yPdwGWun_YZ4TnLHKPqg-39" vertex="1">
          <mxGeometry width="100" height="41" as="geometry">
            <mxRectangle width="100" height="41" as="alternateBounds" />
          </mxGeometry>
        </mxCell>
        <mxCell id="yPdwGWun_YZ4TnLHKPqg-41" value="DATETIME" style="shape=partialRectangle;html=1;whiteSpace=wrap;connectable=0;strokeColor=inherit;overflow=hidden;fillColor=none;top=0;left=0;bottom=0;right=0;pointerEvents=1;fontSize=16;" parent="yPdwGWun_YZ4TnLHKPqg-39" vertex="1">
          <mxGeometry x="100" width="120" height="41" as="geometry">
            <mxRectangle width="120" height="41" as="alternateBounds" />
          </mxGeometry>
        </mxCell>
        <mxCell id="yPdwGWun_YZ4TnLHKPqg-42" value="NO" style="shape=partialRectangle;html=1;whiteSpace=wrap;connectable=0;strokeColor=inherit;overflow=hidden;fillColor=none;top=0;left=0;bottom=0;right=0;pointerEvents=1;fontSize=16;" parent="yPdwGWun_YZ4TnLHKPqg-39" vertex="1">
          <mxGeometry x="220" width="50" height="41" as="geometry">
            <mxRectangle width="50" height="41" as="alternateBounds" />
          </mxGeometry>
        </mxCell>
        <mxCell id="yPdwGWun_YZ4TnLHKPqg-43" style="shape=partialRectangle;html=1;whiteSpace=wrap;connectable=0;strokeColor=inherit;overflow=hidden;fillColor=none;top=0;left=0;bottom=0;right=0;pointerEvents=1;fontSize=16;" parent="yPdwGWun_YZ4TnLHKPqg-39" vertex="1">
          <mxGeometry x="270" width="120" height="41" as="geometry">
            <mxRectangle width="120" height="41" as="alternateBounds" />
          </mxGeometry>
        </mxCell>
        <mxCell id="yPdwGWun_YZ4TnLHKPqg-44" value="DATE NOW()" style="shape=partialRectangle;html=1;whiteSpace=wrap;connectable=0;strokeColor=inherit;overflow=hidden;fillColor=none;top=0;left=0;bottom=0;right=0;pointerEvents=1;fontSize=16;" parent="yPdwGWun_YZ4TnLHKPqg-39" vertex="1">
          <mxGeometry x="390" width="150" height="41" as="geometry">
            <mxRectangle width="150" height="41" as="alternateBounds" />
          </mxGeometry>
        </mxCell>
        <mxCell id="yPdwGWun_YZ4TnLHKPqg-45" style="shape=partialRectangle;html=1;whiteSpace=wrap;connectable=0;strokeColor=inherit;overflow=hidden;fillColor=none;top=0;left=0;bottom=0;right=0;pointerEvents=1;fontSize=16;" parent="yPdwGWun_YZ4TnLHKPqg-39" vertex="1">
          <mxGeometry x="540" width="220" height="41" as="geometry">
            <mxRectangle width="220" height="41" as="alternateBounds" />
          </mxGeometry>
        </mxCell>
        <mxCell id="yPdwGWun_YZ4TnLHKPqg-47" style="shape=tableRow;horizontal=0;startSize=0;swimlaneHead=0;swimlaneBody=0;strokeColor=inherit;top=0;left=0;bottom=0;right=0;collapsible=0;dropTarget=0;fillColor=none;points=[[0,0.5],[1,0.5]];portConstraint=eastwest;fontSize=16;" parent="G3qtx_viLzdnVJc0cmcP-136" vertex="1">
          <mxGeometry y="300" width="760" height="41" as="geometry" />
        </mxCell>
        <mxCell id="yPdwGWun_YZ4TnLHKPqg-48" value="deletedAt" style="shape=partialRectangle;html=1;whiteSpace=wrap;connectable=0;strokeColor=inherit;overflow=hidden;fillColor=none;top=0;left=0;bottom=0;right=0;pointerEvents=1;fontSize=16;" parent="yPdwGWun_YZ4TnLHKPqg-47" vertex="1">
          <mxGeometry width="100" height="41" as="geometry">
            <mxRectangle width="100" height="41" as="alternateBounds" />
          </mxGeometry>
        </mxCell>
        <mxCell id="yPdwGWun_YZ4TnLHKPqg-49" value="DATETIME" style="shape=partialRectangle;html=1;whiteSpace=wrap;connectable=0;strokeColor=inherit;overflow=hidden;fillColor=none;top=0;left=0;bottom=0;right=0;pointerEvents=1;fontSize=16;" parent="yPdwGWun_YZ4TnLHKPqg-47" vertex="1">
          <mxGeometry x="100" width="120" height="41" as="geometry">
            <mxRectangle width="120" height="41" as="alternateBounds" />
          </mxGeometry>
        </mxCell>
        <mxCell id="yPdwGWun_YZ4TnLHKPqg-50" value="YES" style="shape=partialRectangle;html=1;whiteSpace=wrap;connectable=0;strokeColor=inherit;overflow=hidden;fillColor=none;top=0;left=0;bottom=0;right=0;pointerEvents=1;fontSize=16;" parent="yPdwGWun_YZ4TnLHKPqg-47" vertex="1">
          <mxGeometry x="220" width="50" height="41" as="geometry">
            <mxRectangle width="50" height="41" as="alternateBounds" />
          </mxGeometry>
        </mxCell>
        <mxCell id="yPdwGWun_YZ4TnLHKPqg-51" style="shape=partialRectangle;html=1;whiteSpace=wrap;connectable=0;strokeColor=inherit;overflow=hidden;fillColor=none;top=0;left=0;bottom=0;right=0;pointerEvents=1;fontSize=16;" parent="yPdwGWun_YZ4TnLHKPqg-47" vertex="1">
          <mxGeometry x="270" width="120" height="41" as="geometry">
            <mxRectangle width="120" height="41" as="alternateBounds" />
          </mxGeometry>
        </mxCell>
        <mxCell id="yPdwGWun_YZ4TnLHKPqg-52" value="DATE NOW()" style="shape=partialRectangle;html=1;whiteSpace=wrap;connectable=0;strokeColor=inherit;overflow=hidden;fillColor=none;top=0;left=0;bottom=0;right=0;pointerEvents=1;fontSize=16;" parent="yPdwGWun_YZ4TnLHKPqg-47" vertex="1">
          <mxGeometry x="390" width="150" height="41" as="geometry">
            <mxRectangle width="150" height="41" as="alternateBounds" />
          </mxGeometry>
        </mxCell>
        <mxCell id="yPdwGWun_YZ4TnLHKPqg-53" style="shape=partialRectangle;html=1;whiteSpace=wrap;connectable=0;strokeColor=inherit;overflow=hidden;fillColor=none;top=0;left=0;bottom=0;right=0;pointerEvents=1;fontSize=16;" parent="yPdwGWun_YZ4TnLHKPqg-47" vertex="1">
          <mxGeometry x="540" width="220" height="41" as="geometry">
            <mxRectangle width="220" height="41" as="alternateBounds" />
          </mxGeometry>
        </mxCell>
        <mxCell id="i_2Q07JE8PEJanUUVX4C-30" value="admins" style="shape=table;startSize=30;container=1;collapsible=0;childLayout=tableLayout;strokeColor=default;fontSize=16;" parent="G3qtx_viLzdnVJc0cmcP-47" vertex="1">
          <mxGeometry x="480" y="560" width="760" height="330" as="geometry" />
        </mxCell>
        <mxCell id="i_2Q07JE8PEJanUUVX4C-31" value="" style="shape=tableRow;horizontal=0;startSize=0;swimlaneHead=0;swimlaneBody=0;strokeColor=inherit;top=0;left=0;bottom=0;right=0;collapsible=0;dropTarget=0;fillColor=none;points=[[0,0.5],[1,0.5]];portConstraint=eastwest;fontSize=16;" parent="i_2Q07JE8PEJanUUVX4C-30" vertex="1">
          <mxGeometry y="30" width="760" height="20" as="geometry" />
        </mxCell>
        <mxCell id="i_2Q07JE8PEJanUUVX4C-32" value="Field" style="shape=partialRectangle;html=1;whiteSpace=wrap;connectable=0;strokeColor=inherit;overflow=hidden;fillColor=none;top=0;left=0;bottom=0;right=0;pointerEvents=1;fontSize=16;" parent="i_2Q07JE8PEJanUUVX4C-31" vertex="1">
          <mxGeometry width="100" height="20" as="geometry">
            <mxRectangle width="100" height="20" as="alternateBounds" />
          </mxGeometry>
        </mxCell>
        <mxCell id="i_2Q07JE8PEJanUUVX4C-33" value="Type" style="shape=partialRectangle;html=1;whiteSpace=wrap;connectable=0;strokeColor=inherit;overflow=hidden;fillColor=none;top=0;left=0;bottom=0;right=0;pointerEvents=1;fontSize=16;" parent="i_2Q07JE8PEJanUUVX4C-31" vertex="1">
          <mxGeometry x="100" width="120" height="20" as="geometry">
            <mxRectangle width="120" height="20" as="alternateBounds" />
          </mxGeometry>
        </mxCell>
        <mxCell id="i_2Q07JE8PEJanUUVX4C-34" value="Null" style="shape=partialRectangle;html=1;whiteSpace=wrap;connectable=0;strokeColor=inherit;overflow=hidden;fillColor=none;top=0;left=0;bottom=0;right=0;pointerEvents=1;fontSize=16;" parent="i_2Q07JE8PEJanUUVX4C-31" vertex="1">
          <mxGeometry x="220" width="50" height="20" as="geometry">
            <mxRectangle width="50" height="20" as="alternateBounds" />
          </mxGeometry>
        </mxCell>
        <mxCell id="i_2Q07JE8PEJanUUVX4C-35" value="Key" style="shape=partialRectangle;html=1;whiteSpace=wrap;connectable=0;strokeColor=inherit;overflow=hidden;fillColor=none;top=0;left=0;bottom=0;right=0;pointerEvents=1;fontSize=16;" parent="i_2Q07JE8PEJanUUVX4C-31" vertex="1">
          <mxGeometry x="270" width="120" height="20" as="geometry">
            <mxRectangle width="120" height="20" as="alternateBounds" />
          </mxGeometry>
        </mxCell>
        <mxCell id="i_2Q07JE8PEJanUUVX4C-36" value="Default" style="shape=partialRectangle;html=1;whiteSpace=wrap;connectable=0;strokeColor=inherit;overflow=hidden;fillColor=none;top=0;left=0;bottom=0;right=0;pointerEvents=1;fontSize=16;" parent="i_2Q07JE8PEJanUUVX4C-31" vertex="1">
          <mxGeometry x="390" width="150" height="20" as="geometry">
            <mxRectangle width="150" height="20" as="alternateBounds" />
          </mxGeometry>
        </mxCell>
        <mxCell id="i_2Q07JE8PEJanUUVX4C-37" value="Extra" style="shape=partialRectangle;html=1;whiteSpace=wrap;connectable=0;strokeColor=inherit;overflow=hidden;fillColor=none;top=0;left=0;bottom=0;right=0;pointerEvents=1;fontSize=16;" parent="i_2Q07JE8PEJanUUVX4C-31" vertex="1">
          <mxGeometry x="540" width="220" height="20" as="geometry">
            <mxRectangle width="220" height="20" as="alternateBounds" />
          </mxGeometry>
        </mxCell>
        <mxCell id="i_2Q07JE8PEJanUUVX4C-38" style="shape=tableRow;horizontal=0;startSize=0;swimlaneHead=0;swimlaneBody=0;strokeColor=inherit;top=0;left=0;bottom=0;right=0;collapsible=0;dropTarget=0;fillColor=none;points=[[0,0.5],[1,0.5]];portConstraint=eastwest;fontSize=16;" parent="i_2Q07JE8PEJanUUVX4C-30" vertex="1">
          <mxGeometry y="50" width="760" height="40" as="geometry" />
        </mxCell>
        <mxCell id="i_2Q07JE8PEJanUUVX4C-39" value="id" style="shape=partialRectangle;html=1;whiteSpace=wrap;connectable=0;strokeColor=inherit;overflow=hidden;fillColor=none;top=0;left=0;bottom=0;right=0;pointerEvents=1;fontSize=16;" parent="i_2Q07JE8PEJanUUVX4C-38" vertex="1">
          <mxGeometry width="100" height="40" as="geometry">
            <mxRectangle width="100" height="40" as="alternateBounds" />
          </mxGeometry>
        </mxCell>
        <mxCell id="i_2Q07JE8PEJanUUVX4C-40" value="INT UNSIGNED" style="shape=partialRectangle;html=1;whiteSpace=wrap;connectable=0;strokeColor=inherit;overflow=hidden;fillColor=none;top=0;left=0;bottom=0;right=0;pointerEvents=1;fontSize=16;" parent="i_2Q07JE8PEJanUUVX4C-38" vertex="1">
          <mxGeometry x="100" width="120" height="40" as="geometry">
            <mxRectangle width="120" height="40" as="alternateBounds" />
          </mxGeometry>
        </mxCell>
        <mxCell id="i_2Q07JE8PEJanUUVX4C-41" value="NO" style="shape=partialRectangle;html=1;whiteSpace=wrap;connectable=0;strokeColor=inherit;overflow=hidden;fillColor=none;top=0;left=0;bottom=0;right=0;pointerEvents=1;fontSize=16;" parent="i_2Q07JE8PEJanUUVX4C-38" vertex="1">
          <mxGeometry x="220" width="50" height="40" as="geometry">
            <mxRectangle width="50" height="40" as="alternateBounds" />
          </mxGeometry>
        </mxCell>
        <mxCell id="i_2Q07JE8PEJanUUVX4C-42" value="PRIMARY KEY" style="shape=partialRectangle;html=1;whiteSpace=wrap;connectable=0;strokeColor=inherit;overflow=hidden;fillColor=none;top=0;left=0;bottom=0;right=0;pointerEvents=1;fontSize=16;" parent="i_2Q07JE8PEJanUUVX4C-38" vertex="1">
          <mxGeometry x="270" width="120" height="40" as="geometry">
            <mxRectangle width="120" height="40" as="alternateBounds" />
          </mxGeometry>
        </mxCell>
        <mxCell id="i_2Q07JE8PEJanUUVX4C-43" value="NULL" style="shape=partialRectangle;html=1;whiteSpace=wrap;connectable=0;strokeColor=inherit;overflow=hidden;fillColor=none;top=0;left=0;bottom=0;right=0;pointerEvents=1;fontSize=16;" parent="i_2Q07JE8PEJanUUVX4C-38" vertex="1">
          <mxGeometry x="390" width="150" height="40" as="geometry">
            <mxRectangle width="150" height="40" as="alternateBounds" />
          </mxGeometry>
        </mxCell>
        <mxCell id="i_2Q07JE8PEJanUUVX4C-44" value="AUTO_INCREMENT" style="shape=partialRectangle;html=1;whiteSpace=wrap;connectable=0;strokeColor=inherit;overflow=hidden;fillColor=none;top=0;left=0;bottom=0;right=0;pointerEvents=1;fontSize=16;" parent="i_2Q07JE8PEJanUUVX4C-38" vertex="1">
          <mxGeometry x="540" width="220" height="40" as="geometry">
            <mxRectangle width="220" height="40" as="alternateBounds" />
          </mxGeometry>
        </mxCell>
        <mxCell id="i_2Q07JE8PEJanUUVX4C-45" style="shape=tableRow;horizontal=0;startSize=0;swimlaneHead=0;swimlaneBody=0;strokeColor=inherit;top=0;left=0;bottom=0;right=0;collapsible=0;dropTarget=0;fillColor=none;points=[[0,0.5],[1,0.5]];portConstraint=eastwest;fontSize=16;" parent="i_2Q07JE8PEJanUUVX4C-30" vertex="1">
          <mxGeometry y="90" width="760" height="40" as="geometry" />
        </mxCell>
        <mxCell id="i_2Q07JE8PEJanUUVX4C-46" value="&lt;span style=&quot;color: rgb(0, 0, 0); font-family: Helvetica; font-size: 16px; font-style: normal; font-variant-ligatures: normal; font-variant-caps: normal; font-weight: 400; letter-spacing: normal; orphans: 2; text-align: center; text-indent: 0px; text-transform: none; widows: 2; word-spacing: 0px; -webkit-text-stroke-width: 0px; white-space: normal; background-color: rgb(251, 251, 251); text-decoration-thickness: initial; text-decoration-style: initial; text-decoration-color: initial; display: inline !important; float: none;&quot;&gt;email&lt;/span&gt;" style="shape=partialRectangle;html=1;whiteSpace=wrap;connectable=0;strokeColor=inherit;overflow=hidden;fillColor=none;top=0;left=0;bottom=0;right=0;pointerEvents=1;fontSize=16;" parent="i_2Q07JE8PEJanUUVX4C-45" vertex="1">
          <mxGeometry width="100" height="40" as="geometry">
            <mxRectangle width="100" height="40" as="alternateBounds" />
          </mxGeometry>
        </mxCell>
        <mxCell id="i_2Q07JE8PEJanUUVX4C-47" value="&lt;span style=&quot;color: rgb(0, 0, 0); font-family: Helvetica; font-size: 16px; font-style: normal; font-variant-ligatures: normal; font-variant-caps: normal; font-weight: 400; letter-spacing: normal; orphans: 2; text-align: center; text-indent: 0px; text-transform: none; widows: 2; word-spacing: 0px; -webkit-text-stroke-width: 0px; white-space: normal; background-color: rgb(251, 251, 251); text-decoration-thickness: initial; text-decoration-style: initial; text-decoration-color: initial; display: inline !important; float: none;&quot;&gt;VARCHAR(100)&lt;/span&gt;" style="shape=partialRectangle;html=1;whiteSpace=wrap;connectable=0;strokeColor=inherit;overflow=hidden;fillColor=none;top=0;left=0;bottom=0;right=0;pointerEvents=1;fontSize=16;" parent="i_2Q07JE8PEJanUUVX4C-45" vertex="1">
          <mxGeometry x="100" width="120" height="40" as="geometry">
            <mxRectangle width="120" height="40" as="alternateBounds" />
          </mxGeometry>
        </mxCell>
        <mxCell id="i_2Q07JE8PEJanUUVX4C-48" value="&lt;span style=&quot;color: rgb(0, 0, 0); font-family: Helvetica; font-size: 16px; font-style: normal; font-variant-ligatures: normal; font-variant-caps: normal; font-weight: 400; letter-spacing: normal; orphans: 2; text-align: center; text-indent: 0px; text-transform: none; widows: 2; word-spacing: 0px; -webkit-text-stroke-width: 0px; white-space: normal; background-color: rgb(251, 251, 251); text-decoration-thickness: initial; text-decoration-style: initial; text-decoration-color: initial; display: inline !important; float: none;&quot;&gt;NO&lt;/span&gt;" style="shape=partialRectangle;html=1;whiteSpace=wrap;connectable=0;strokeColor=inherit;overflow=hidden;fillColor=none;top=0;left=0;bottom=0;right=0;pointerEvents=1;fontSize=16;" parent="i_2Q07JE8PEJanUUVX4C-45" vertex="1">
          <mxGeometry x="220" width="50" height="40" as="geometry">
            <mxRectangle width="50" height="40" as="alternateBounds" />
          </mxGeometry>
        </mxCell>
        <mxCell id="i_2Q07JE8PEJanUUVX4C-49" value="" style="shape=partialRectangle;html=1;whiteSpace=wrap;connectable=0;strokeColor=inherit;overflow=hidden;fillColor=none;top=0;left=0;bottom=0;right=0;pointerEvents=1;fontSize=16;" parent="i_2Q07JE8PEJanUUVX4C-45" vertex="1">
          <mxGeometry x="270" width="120" height="40" as="geometry">
            <mxRectangle width="120" height="40" as="alternateBounds" />
          </mxGeometry>
        </mxCell>
        <mxCell id="i_2Q07JE8PEJanUUVX4C-50" value="&lt;span style=&quot;color: rgb(0, 0, 0); font-family: Helvetica; font-size: 16px; font-style: normal; font-variant-ligatures: normal; font-variant-caps: normal; font-weight: 400; letter-spacing: normal; orphans: 2; text-align: center; text-indent: 0px; text-transform: none; widows: 2; word-spacing: 0px; -webkit-text-stroke-width: 0px; white-space: normal; background-color: rgb(251, 251, 251); text-decoration-thickness: initial; text-decoration-style: initial; text-decoration-color: initial; display: inline !important; float: none;&quot;&gt;NULL&lt;/span&gt;" style="shape=partialRectangle;html=1;whiteSpace=wrap;connectable=0;strokeColor=inherit;overflow=hidden;fillColor=none;top=0;left=0;bottom=0;right=0;pointerEvents=1;fontSize=16;" parent="i_2Q07JE8PEJanUUVX4C-45" vertex="1">
          <mxGeometry x="390" width="150" height="40" as="geometry">
            <mxRectangle width="150" height="40" as="alternateBounds" />
          </mxGeometry>
        </mxCell>
        <mxCell id="i_2Q07JE8PEJanUUVX4C-51" style="shape=partialRectangle;html=1;whiteSpace=wrap;connectable=0;strokeColor=inherit;overflow=hidden;fillColor=none;top=0;left=0;bottom=0;right=0;pointerEvents=1;fontSize=16;" parent="i_2Q07JE8PEJanUUVX4C-45" vertex="1">
          <mxGeometry x="540" width="220" height="40" as="geometry">
            <mxRectangle width="220" height="40" as="alternateBounds" />
          </mxGeometry>
        </mxCell>
        <mxCell id="i_2Q07JE8PEJanUUVX4C-52" value="" style="shape=tableRow;horizontal=0;startSize=0;swimlaneHead=0;swimlaneBody=0;strokeColor=inherit;top=0;left=0;bottom=0;right=0;collapsible=0;dropTarget=0;fillColor=none;points=[[0,0.5],[1,0.5]];portConstraint=eastwest;fontSize=16;" parent="i_2Q07JE8PEJanUUVX4C-30" vertex="1">
          <mxGeometry y="130" width="760" height="40" as="geometry" />
        </mxCell>
        <mxCell id="i_2Q07JE8PEJanUUVX4C-53" value="pw" style="shape=partialRectangle;html=1;whiteSpace=wrap;connectable=0;strokeColor=inherit;overflow=hidden;fillColor=none;top=0;left=0;bottom=0;right=0;pointerEvents=1;fontSize=16;" parent="i_2Q07JE8PEJanUUVX4C-52" vertex="1">
          <mxGeometry width="100" height="40" as="geometry">
            <mxRectangle width="100" height="40" as="alternateBounds" />
          </mxGeometry>
        </mxCell>
        <mxCell id="i_2Q07JE8PEJanUUVX4C-54" value="INT&amp;nbsp;UNSIGNED" style="shape=partialRectangle;html=1;whiteSpace=wrap;connectable=0;strokeColor=inherit;overflow=hidden;fillColor=none;top=0;left=0;bottom=0;right=0;pointerEvents=1;fontSize=16;" parent="i_2Q07JE8PEJanUUVX4C-52" vertex="1">
          <mxGeometry x="100" width="120" height="40" as="geometry">
            <mxRectangle width="120" height="40" as="alternateBounds" />
          </mxGeometry>
        </mxCell>
        <mxCell id="i_2Q07JE8PEJanUUVX4C-55" value="NO" style="shape=partialRectangle;html=1;whiteSpace=wrap;connectable=0;strokeColor=inherit;overflow=hidden;fillColor=none;top=0;left=0;bottom=0;right=0;pointerEvents=1;fontSize=16;" parent="i_2Q07JE8PEJanUUVX4C-52" vertex="1">
          <mxGeometry x="220" width="50" height="40" as="geometry">
            <mxRectangle width="50" height="40" as="alternateBounds" />
          </mxGeometry>
        </mxCell>
        <mxCell id="i_2Q07JE8PEJanUUVX4C-56" value="" style="shape=partialRectangle;html=1;whiteSpace=wrap;connectable=0;strokeColor=inherit;overflow=hidden;fillColor=none;top=0;left=0;bottom=0;right=0;pointerEvents=1;fontSize=16;" parent="i_2Q07JE8PEJanUUVX4C-52" vertex="1">
          <mxGeometry x="270" width="120" height="40" as="geometry">
            <mxRectangle width="120" height="40" as="alternateBounds" />
          </mxGeometry>
        </mxCell>
        <mxCell id="i_2Q07JE8PEJanUUVX4C-57" value="&lt;span style=&quot;color: rgb(0, 0, 0); font-family: Helvetica; font-size: 16px; font-style: normal; font-variant-ligatures: normal; font-variant-caps: normal; font-weight: 400; letter-spacing: normal; orphans: 2; text-align: center; text-indent: 0px; text-transform: none; widows: 2; word-spacing: 0px; -webkit-text-stroke-width: 0px; white-space: normal; background-color: rgb(251, 251, 251); text-decoration-thickness: initial; text-decoration-style: initial; text-decoration-color: initial; float: none; display: inline !important;&quot;&gt;NULL&lt;/span&gt;" style="shape=partialRectangle;html=1;whiteSpace=wrap;connectable=0;strokeColor=inherit;overflow=hidden;fillColor=none;top=0;left=0;bottom=0;right=0;pointerEvents=1;fontSize=16;" parent="i_2Q07JE8PEJanUUVX4C-52" vertex="1">
          <mxGeometry x="390" width="150" height="40" as="geometry">
            <mxRectangle width="150" height="40" as="alternateBounds" />
          </mxGeometry>
        </mxCell>
        <mxCell id="i_2Q07JE8PEJanUUVX4C-58" value="" style="shape=partialRectangle;html=1;whiteSpace=wrap;connectable=0;strokeColor=inherit;overflow=hidden;fillColor=none;top=0;left=0;bottom=0;right=0;pointerEvents=1;fontSize=16;" parent="i_2Q07JE8PEJanUUVX4C-52" vertex="1">
          <mxGeometry x="540" width="220" height="40" as="geometry">
            <mxRectangle width="220" height="40" as="alternateBounds" />
          </mxGeometry>
        </mxCell>
        <mxCell id="i_2Q07JE8PEJanUUVX4C-59" value="" style="shape=tableRow;horizontal=0;startSize=0;swimlaneHead=0;swimlaneBody=0;strokeColor=inherit;top=0;left=0;bottom=0;right=0;collapsible=0;dropTarget=0;fillColor=none;points=[[0,0.5],[1,0.5]];portConstraint=eastwest;fontSize=16;" parent="i_2Q07JE8PEJanUUVX4C-30" vertex="1">
          <mxGeometry y="170" width="760" height="40" as="geometry" />
        </mxCell>
        <mxCell id="i_2Q07JE8PEJanUUVX4C-60" value="nick" style="shape=partialRectangle;html=1;whiteSpace=wrap;connectable=0;strokeColor=inherit;overflow=hidden;fillColor=none;top=0;left=0;bottom=0;right=0;pointerEvents=1;fontSize=16;" parent="i_2Q07JE8PEJanUUVX4C-59" vertex="1">
          <mxGeometry width="100" height="40" as="geometry">
            <mxRectangle width="100" height="40" as="alternateBounds" />
          </mxGeometry>
        </mxCell>
        <mxCell id="i_2Q07JE8PEJanUUVX4C-61" value="INT&amp;nbsp;UNSIGNED" style="shape=partialRectangle;html=1;whiteSpace=wrap;connectable=0;strokeColor=inherit;overflow=hidden;fillColor=none;top=0;left=0;bottom=0;right=0;pointerEvents=1;fontSize=16;" parent="i_2Q07JE8PEJanUUVX4C-59" vertex="1">
          <mxGeometry x="100" width="120" height="40" as="geometry">
            <mxRectangle width="120" height="40" as="alternateBounds" />
          </mxGeometry>
        </mxCell>
        <mxCell id="i_2Q07JE8PEJanUUVX4C-62" value="&lt;span style=&quot;color: rgb(0, 0, 0); font-family: Helvetica; font-size: 16px; font-style: normal; font-variant-ligatures: normal; font-variant-caps: normal; font-weight: 400; letter-spacing: normal; orphans: 2; text-align: center; text-indent: 0px; text-transform: none; widows: 2; word-spacing: 0px; -webkit-text-stroke-width: 0px; white-space: normal; background-color: rgb(251, 251, 251); text-decoration-thickness: initial; text-decoration-style: initial; text-decoration-color: initial; float: none; display: inline !important;&quot;&gt;NO&lt;/span&gt;" style="shape=partialRectangle;html=1;whiteSpace=wrap;connectable=0;strokeColor=inherit;overflow=hidden;fillColor=none;top=0;left=0;bottom=0;right=0;pointerEvents=1;fontSize=16;" parent="i_2Q07JE8PEJanUUVX4C-59" vertex="1">
          <mxGeometry x="220" width="50" height="40" as="geometry">
            <mxRectangle width="50" height="40" as="alternateBounds" />
          </mxGeometry>
        </mxCell>
        <mxCell id="i_2Q07JE8PEJanUUVX4C-63" value="" style="shape=partialRectangle;html=1;whiteSpace=wrap;connectable=0;strokeColor=inherit;overflow=hidden;fillColor=none;top=0;left=0;bottom=0;right=0;pointerEvents=1;fontSize=16;" parent="i_2Q07JE8PEJanUUVX4C-59" vertex="1">
          <mxGeometry x="270" width="120" height="40" as="geometry">
            <mxRectangle width="120" height="40" as="alternateBounds" />
          </mxGeometry>
        </mxCell>
        <mxCell id="i_2Q07JE8PEJanUUVX4C-64" value="&lt;span style=&quot;color: rgb(0, 0, 0); font-family: Helvetica; font-size: 16px; font-style: normal; font-variant-ligatures: normal; font-variant-caps: normal; font-weight: 400; letter-spacing: normal; orphans: 2; text-align: center; text-indent: 0px; text-transform: none; widows: 2; word-spacing: 0px; -webkit-text-stroke-width: 0px; white-space: normal; background-color: rgb(251, 251, 251); text-decoration-thickness: initial; text-decoration-style: initial; text-decoration-color: initial; float: none; display: inline !important;&quot;&gt;NULL&lt;/span&gt;" style="shape=partialRectangle;html=1;whiteSpace=wrap;connectable=0;strokeColor=inherit;overflow=hidden;fillColor=none;top=0;left=0;bottom=0;right=0;pointerEvents=1;fontSize=16;" parent="i_2Q07JE8PEJanUUVX4C-59" vertex="1">
          <mxGeometry x="390" width="150" height="40" as="geometry">
            <mxRectangle width="150" height="40" as="alternateBounds" />
          </mxGeometry>
        </mxCell>
        <mxCell id="i_2Q07JE8PEJanUUVX4C-65" style="shape=partialRectangle;html=1;whiteSpace=wrap;connectable=0;strokeColor=inherit;overflow=hidden;fillColor=none;top=0;left=0;bottom=0;right=0;pointerEvents=1;fontSize=16;" parent="i_2Q07JE8PEJanUUVX4C-59" vertex="1">
          <mxGeometry x="540" width="220" height="40" as="geometry">
            <mxRectangle width="220" height="40" as="alternateBounds" />
          </mxGeometry>
        </mxCell>
        <mxCell id="i_2Q07JE8PEJanUUVX4C-66" style="shape=tableRow;horizontal=0;startSize=0;swimlaneHead=0;swimlaneBody=0;strokeColor=inherit;top=0;left=0;bottom=0;right=0;collapsible=0;dropTarget=0;fillColor=none;points=[[0,0.5],[1,0.5]];portConstraint=eastwest;fontSize=16;" parent="i_2Q07JE8PEJanUUVX4C-30" vertex="1">
          <mxGeometry y="210" width="760" height="40" as="geometry" />
        </mxCell>
        <mxCell id="i_2Q07JE8PEJanUUVX4C-67" value="createdAt" style="shape=partialRectangle;html=1;whiteSpace=wrap;connectable=0;strokeColor=inherit;overflow=hidden;fillColor=none;top=0;left=0;bottom=0;right=0;pointerEvents=1;fontSize=16;" parent="i_2Q07JE8PEJanUUVX4C-66" vertex="1">
          <mxGeometry width="100" height="40" as="geometry">
            <mxRectangle width="100" height="40" as="alternateBounds" />
          </mxGeometry>
        </mxCell>
        <mxCell id="i_2Q07JE8PEJanUUVX4C-68" value="DATETIME" style="shape=partialRectangle;html=1;whiteSpace=wrap;connectable=0;strokeColor=inherit;overflow=hidden;fillColor=none;top=0;left=0;bottom=0;right=0;pointerEvents=1;fontSize=16;" parent="i_2Q07JE8PEJanUUVX4C-66" vertex="1">
          <mxGeometry x="100" width="120" height="40" as="geometry">
            <mxRectangle width="120" height="40" as="alternateBounds" />
          </mxGeometry>
        </mxCell>
        <mxCell id="i_2Q07JE8PEJanUUVX4C-69" value="NO" style="shape=partialRectangle;html=1;whiteSpace=wrap;connectable=0;strokeColor=inherit;overflow=hidden;fillColor=none;top=0;left=0;bottom=0;right=0;pointerEvents=1;fontSize=16;" parent="i_2Q07JE8PEJanUUVX4C-66" vertex="1">
          <mxGeometry x="220" width="50" height="40" as="geometry">
            <mxRectangle width="50" height="40" as="alternateBounds" />
          </mxGeometry>
        </mxCell>
        <mxCell id="i_2Q07JE8PEJanUUVX4C-70" style="shape=partialRectangle;html=1;whiteSpace=wrap;connectable=0;strokeColor=inherit;overflow=hidden;fillColor=none;top=0;left=0;bottom=0;right=0;pointerEvents=1;fontSize=16;" parent="i_2Q07JE8PEJanUUVX4C-66" vertex="1">
          <mxGeometry x="270" width="120" height="40" as="geometry">
            <mxRectangle width="120" height="40" as="alternateBounds" />
          </mxGeometry>
        </mxCell>
        <mxCell id="i_2Q07JE8PEJanUUVX4C-71" value="DATE NOW()" style="shape=partialRectangle;html=1;whiteSpace=wrap;connectable=0;strokeColor=inherit;overflow=hidden;fillColor=none;top=0;left=0;bottom=0;right=0;pointerEvents=1;fontSize=16;" parent="i_2Q07JE8PEJanUUVX4C-66" vertex="1">
          <mxGeometry x="390" width="150" height="40" as="geometry">
            <mxRectangle width="150" height="40" as="alternateBounds" />
          </mxGeometry>
        </mxCell>
        <mxCell id="i_2Q07JE8PEJanUUVX4C-72" value="" style="shape=partialRectangle;html=1;whiteSpace=wrap;connectable=0;strokeColor=inherit;overflow=hidden;fillColor=none;top=0;left=0;bottom=0;right=0;pointerEvents=1;fontSize=16;" parent="i_2Q07JE8PEJanUUVX4C-66" vertex="1">
          <mxGeometry x="540" width="220" height="40" as="geometry">
            <mxRectangle width="220" height="40" as="alternateBounds" />
          </mxGeometry>
        </mxCell>
        <mxCell id="i_2Q07JE8PEJanUUVX4C-73" style="shape=tableRow;horizontal=0;startSize=0;swimlaneHead=0;swimlaneBody=0;strokeColor=inherit;top=0;left=0;bottom=0;right=0;collapsible=0;dropTarget=0;fillColor=none;points=[[0,0.5],[1,0.5]];portConstraint=eastwest;fontSize=16;" parent="i_2Q07JE8PEJanUUVX4C-30" vertex="1">
          <mxGeometry y="250" width="760" height="40" as="geometry" />
        </mxCell>
        <mxCell id="i_2Q07JE8PEJanUUVX4C-74" value="deletedAt" style="shape=partialRectangle;html=1;whiteSpace=wrap;connectable=0;strokeColor=inherit;overflow=hidden;fillColor=none;top=0;left=0;bottom=0;right=0;pointerEvents=1;fontSize=16;" parent="i_2Q07JE8PEJanUUVX4C-73" vertex="1">
          <mxGeometry width="100" height="40" as="geometry">
            <mxRectangle width="100" height="40" as="alternateBounds" />
          </mxGeometry>
        </mxCell>
        <mxCell id="i_2Q07JE8PEJanUUVX4C-75" value="DATETIME" style="shape=partialRectangle;html=1;whiteSpace=wrap;connectable=0;strokeColor=inherit;overflow=hidden;fillColor=none;top=0;left=0;bottom=0;right=0;pointerEvents=1;fontSize=16;" parent="i_2Q07JE8PEJanUUVX4C-73" vertex="1">
          <mxGeometry x="100" width="120" height="40" as="geometry">
            <mxRectangle width="120" height="40" as="alternateBounds" />
          </mxGeometry>
        </mxCell>
        <mxCell id="i_2Q07JE8PEJanUUVX4C-76" value="YES" style="shape=partialRectangle;html=1;whiteSpace=wrap;connectable=0;strokeColor=inherit;overflow=hidden;fillColor=none;top=0;left=0;bottom=0;right=0;pointerEvents=1;fontSize=16;" parent="i_2Q07JE8PEJanUUVX4C-73" vertex="1">
          <mxGeometry x="220" width="50" height="40" as="geometry">
            <mxRectangle width="50" height="40" as="alternateBounds" />
          </mxGeometry>
        </mxCell>
        <mxCell id="i_2Q07JE8PEJanUUVX4C-77" style="shape=partialRectangle;html=1;whiteSpace=wrap;connectable=0;strokeColor=inherit;overflow=hidden;fillColor=none;top=0;left=0;bottom=0;right=0;pointerEvents=1;fontSize=16;" parent="i_2Q07JE8PEJanUUVX4C-73" vertex="1">
          <mxGeometry x="270" width="120" height="40" as="geometry">
            <mxRectangle width="120" height="40" as="alternateBounds" />
          </mxGeometry>
        </mxCell>
        <mxCell id="i_2Q07JE8PEJanUUVX4C-78" value="DATE NOW()" style="shape=partialRectangle;html=1;whiteSpace=wrap;connectable=0;strokeColor=inherit;overflow=hidden;fillColor=none;top=0;left=0;bottom=0;right=0;pointerEvents=1;fontSize=16;" parent="i_2Q07JE8PEJanUUVX4C-73" vertex="1">
          <mxGeometry x="390" width="150" height="40" as="geometry">
            <mxRectangle width="150" height="40" as="alternateBounds" />
          </mxGeometry>
        </mxCell>
        <mxCell id="i_2Q07JE8PEJanUUVX4C-79" value="" style="shape=partialRectangle;html=1;whiteSpace=wrap;connectable=0;strokeColor=inherit;overflow=hidden;fillColor=none;top=0;left=0;bottom=0;right=0;pointerEvents=1;fontSize=16;" parent="i_2Q07JE8PEJanUUVX4C-73" vertex="1">
          <mxGeometry x="540" width="220" height="40" as="geometry">
            <mxRectangle width="220" height="40" as="alternateBounds" />
          </mxGeometry>
        </mxCell>
        <mxCell id="i_2Q07JE8PEJanUUVX4C-80" style="shape=tableRow;horizontal=0;startSize=0;swimlaneHead=0;swimlaneBody=0;strokeColor=inherit;top=0;left=0;bottom=0;right=0;collapsible=0;dropTarget=0;fillColor=none;points=[[0,0.5],[1,0.5]];portConstraint=eastwest;fontSize=16;" parent="i_2Q07JE8PEJanUUVX4C-30" vertex="1">
          <mxGeometry y="290" width="760" height="40" as="geometry" />
        </mxCell>
        <mxCell id="i_2Q07JE8PEJanUUVX4C-81" value="adminRank" style="shape=partialRectangle;html=1;whiteSpace=wrap;connectable=0;strokeColor=inherit;overflow=hidden;fillColor=none;top=0;left=0;bottom=0;right=0;pointerEvents=1;fontSize=16;" parent="i_2Q07JE8PEJanUUVX4C-80" vertex="1">
          <mxGeometry width="100" height="40" as="geometry">
            <mxRectangle width="100" height="40" as="alternateBounds" />
          </mxGeometry>
        </mxCell>
        <mxCell id="i_2Q07JE8PEJanUUVX4C-82" value="BOOLEAN" style="shape=partialRectangle;html=1;whiteSpace=wrap;connectable=0;strokeColor=inherit;overflow=hidden;fillColor=none;top=0;left=0;bottom=0;right=0;pointerEvents=1;fontSize=16;" parent="i_2Q07JE8PEJanUUVX4C-80" vertex="1">
          <mxGeometry x="100" width="120" height="40" as="geometry">
            <mxRectangle width="120" height="40" as="alternateBounds" />
          </mxGeometry>
        </mxCell>
        <mxCell id="i_2Q07JE8PEJanUUVX4C-83" value="NO" style="shape=partialRectangle;html=1;whiteSpace=wrap;connectable=0;strokeColor=inherit;overflow=hidden;fillColor=none;top=0;left=0;bottom=0;right=0;pointerEvents=1;fontSize=16;" parent="i_2Q07JE8PEJanUUVX4C-80" vertex="1">
          <mxGeometry x="220" width="50" height="40" as="geometry">
            <mxRectangle width="50" height="40" as="alternateBounds" />
          </mxGeometry>
        </mxCell>
        <mxCell id="i_2Q07JE8PEJanUUVX4C-84" style="shape=partialRectangle;html=1;whiteSpace=wrap;connectable=0;strokeColor=inherit;overflow=hidden;fillColor=none;top=0;left=0;bottom=0;right=0;pointerEvents=1;fontSize=16;" parent="i_2Q07JE8PEJanUUVX4C-80" vertex="1">
          <mxGeometry x="270" width="120" height="40" as="geometry">
            <mxRectangle width="120" height="40" as="alternateBounds" />
          </mxGeometry>
        </mxCell>
        <mxCell id="i_2Q07JE8PEJanUUVX4C-85" value="TRUE" style="shape=partialRectangle;html=1;whiteSpace=wrap;connectable=0;strokeColor=inherit;overflow=hidden;fillColor=none;top=0;left=0;bottom=0;right=0;pointerEvents=1;fontSize=16;" parent="i_2Q07JE8PEJanUUVX4C-80" vertex="1">
          <mxGeometry x="390" width="150" height="40" as="geometry">
            <mxRectangle width="150" height="40" as="alternateBounds" />
          </mxGeometry>
        </mxCell>
        <mxCell id="i_2Q07JE8PEJanUUVX4C-86" style="shape=partialRectangle;html=1;whiteSpace=wrap;connectable=0;strokeColor=inherit;overflow=hidden;fillColor=none;top=0;left=0;bottom=0;right=0;pointerEvents=1;fontSize=16;" parent="i_2Q07JE8PEJanUUVX4C-80" vertex="1">
          <mxGeometry x="540" width="220" height="40" as="geometry">
            <mxRectangle width="220" height="40" as="alternateBounds" />
          </mxGeometry>
        </mxCell>
        <mxCell id="CIUDktcRpaaj8q2-CpJJ-1" style="edgeStyle=orthogonalEdgeStyle;rounded=0;orthogonalLoop=1;jettySize=auto;html=1;entryX=0;entryY=0.5;entryDx=0;entryDy=0;" parent="G3qtx_viLzdnVJc0cmcP-47" source="G3qtx_viLzdnVJc0cmcP-180" target="G3qtx_viLzdnVJc0cmcP-144" edge="1">
          <mxGeometry relative="1" as="geometry" />
        </mxCell>
        <mxCell id="G3qtx_viLzdnVJc0cmcP-74" value="&lt;span style=&quot;font-size: 36px;&quot;&gt;DB (mongGo)&lt;/span&gt;" style="swimlane;whiteSpace=wrap;html=1;startSize=110;" parent="1" vertex="1">
          <mxGeometry x="2620" y="210" width="1410" height="920" as="geometry" />
        </mxCell>
        <mxCell id="i_2Q07JE8PEJanUUVX4C-5" value="recomments" style="swimlane;fontStyle=0;childLayout=stackLayout;horizontal=1;startSize=30;horizontalStack=0;resizeParent=1;resizeParentMax=0;resizeLast=0;collapsible=1;marginBottom=0;whiteSpace=wrap;html=1;fontSize=18;" parent="G3qtx_viLzdnVJc0cmcP-74" vertex="1">
          <mxGeometry x="395" y="530" width="620" height="270" as="geometry" />
        </mxCell>
        <mxCell id="i_2Q07JE8PEJanUUVX4C-6" value="_id" style="text;strokeColor=none;fillColor=none;align=left;verticalAlign=middle;spacingLeft=4;spacingRight=4;overflow=hidden;points=[[0,0.5],[1,0.5]];portConstraint=eastwest;rotatable=0;whiteSpace=wrap;html=1;fontSize=18;" parent="i_2Q07JE8PEJanUUVX4C-5" vertex="1">
          <mxGeometry y="30" width="620" height="30" as="geometry" />
        </mxCell>
        <mxCell id="i_2Q07JE8PEJanUUVX4C-7" value="chatId" style="text;strokeColor=none;fillColor=none;align=left;verticalAlign=middle;spacingLeft=4;spacingRight=4;overflow=hidden;points=[[0,0.5],[1,0.5]];portConstraint=eastwest;rotatable=0;whiteSpace=wrap;html=1;fontSize=18;" parent="i_2Q07JE8PEJanUUVX4C-5" vertex="1">
          <mxGeometry y="60" width="620" height="30" as="geometry" />
        </mxCell>
        <mxCell id="i_2Q07JE8PEJanUUVX4C-8" value="roomId" style="text;strokeColor=none;fillColor=none;align=left;verticalAlign=middle;spacingLeft=4;spacingRight=4;overflow=hidden;points=[[0,0.5],[1,0.5]];portConstraint=eastwest;rotatable=0;whiteSpace=wrap;html=1;fontSize=18;" parent="i_2Q07JE8PEJanUUVX4C-5" vertex="1">
          <mxGeometry y="90" width="620" height="30" as="geometry" />
        </mxCell>
        <mxCell id="i_2Q07JE8PEJanUUVX4C-9" value="userId" style="text;strokeColor=none;fillColor=none;align=left;verticalAlign=middle;spacingLeft=4;spacingRight=4;overflow=hidden;points=[[0,0.5],[1,0.5]];portConstraint=eastwest;rotatable=0;whiteSpace=wrap;html=1;fontSize=18;" parent="i_2Q07JE8PEJanUUVX4C-5" vertex="1">
          <mxGeometry y="120" width="620" height="30" as="geometry" />
        </mxCell>
        <mxCell id="KR3u382sj2EVaVP5T0AK-3" value="ghostId" style="text;strokeColor=none;fillColor=none;align=left;verticalAlign=middle;spacingLeft=4;spacingRight=4;overflow=hidden;points=[[0,0.5],[1,0.5]];portConstraint=eastwest;rotatable=0;whiteSpace=wrap;html=1;fontSize=18;" vertex="1" parent="i_2Q07JE8PEJanUUVX4C-5">
          <mxGeometry y="150" width="620" height="30" as="geometry" />
        </mxCell>
        <mxCell id="i_2Q07JE8PEJanUUVX4C-10" value="createdAt" style="text;strokeColor=none;fillColor=none;align=left;verticalAlign=middle;spacingLeft=4;spacingRight=4;overflow=hidden;points=[[0,0.5],[1,0.5]];portConstraint=eastwest;rotatable=0;whiteSpace=wrap;html=1;fontSize=18;" parent="i_2Q07JE8PEJanUUVX4C-5" vertex="1">
          <mxGeometry y="180" width="620" height="30" as="geometry" />
        </mxCell>
        <mxCell id="i_2Q07JE8PEJanUUVX4C-11" value="deletedAt" style="text;strokeColor=none;fillColor=none;align=left;verticalAlign=middle;spacingLeft=4;spacingRight=4;overflow=hidden;points=[[0,0.5],[1,0.5]];portConstraint=eastwest;rotatable=0;whiteSpace=wrap;html=1;fontSize=18;" parent="i_2Q07JE8PEJanUUVX4C-5" vertex="1">
          <mxGeometry y="210" width="620" height="30" as="geometry" />
        </mxCell>
        <mxCell id="i_2Q07JE8PEJanUUVX4C-12" value="content" style="text;strokeColor=none;fillColor=none;align=left;verticalAlign=middle;spacingLeft=4;spacingRight=4;overflow=hidden;points=[[0,0.5],[1,0.5]];portConstraint=eastwest;rotatable=0;whiteSpace=wrap;html=1;fontSize=18;" parent="i_2Q07JE8PEJanUUVX4C-5" vertex="1">
          <mxGeometry y="240" width="620" height="30" as="geometry" />
        </mxCell>
        <mxCell id="i_2Q07JE8PEJanUUVX4C-13" value="chats" style="swimlane;fontStyle=0;childLayout=stackLayout;horizontal=1;startSize=30;horizontalStack=0;resizeParent=1;resizeParentMax=0;resizeLast=0;collapsible=1;marginBottom=0;whiteSpace=wrap;html=1;fontSize=18;" parent="G3qtx_viLzdnVJc0cmcP-74" vertex="1">
          <mxGeometry x="380" y="210" width="650" height="270" as="geometry" />
        </mxCell>
        <mxCell id="i_2Q07JE8PEJanUUVX4C-14" value="_id" style="text;strokeColor=none;fillColor=none;align=left;verticalAlign=middle;spacingLeft=4;spacingRight=4;overflow=hidden;points=[[0,0.5],[1,0.5]];portConstraint=eastwest;rotatable=0;whiteSpace=wrap;html=1;fontSize=18;" parent="i_2Q07JE8PEJanUUVX4C-13" vertex="1">
          <mxGeometry y="30" width="650" height="30" as="geometry" />
        </mxCell>
        <mxCell id="i_2Q07JE8PEJanUUVX4C-16" value="roomId" style="text;strokeColor=none;fillColor=none;align=left;verticalAlign=middle;spacingLeft=4;spacingRight=4;overflow=hidden;points=[[0,0.5],[1,0.5]];portConstraint=eastwest;rotatable=0;whiteSpace=wrap;html=1;fontSize=18;" parent="i_2Q07JE8PEJanUUVX4C-13" vertex="1">
          <mxGeometry y="60" width="650" height="30" as="geometry" />
        </mxCell>
        <mxCell id="i_2Q07JE8PEJanUUVX4C-17" value="userId" style="text;strokeColor=none;fillColor=none;align=left;verticalAlign=middle;spacingLeft=4;spacingRight=4;overflow=hidden;points=[[0,0.5],[1,0.5]];portConstraint=eastwest;rotatable=0;whiteSpace=wrap;html=1;fontSize=18;" parent="i_2Q07JE8PEJanUUVX4C-13" vertex="1">
          <mxGeometry y="90" width="650" height="30" as="geometry" />
        </mxCell>
        <mxCell id="KR3u382sj2EVaVP5T0AK-1" value="ghostId" style="text;strokeColor=none;fillColor=none;align=left;verticalAlign=middle;spacingLeft=4;spacingRight=4;overflow=hidden;points=[[0,0.5],[1,0.5]];portConstraint=eastwest;rotatable=0;whiteSpace=wrap;html=1;fontSize=18;" vertex="1" parent="i_2Q07JE8PEJanUUVX4C-13">
          <mxGeometry y="120" width="650" height="30" as="geometry" />
        </mxCell>
        <mxCell id="i_2Q07JE8PEJanUUVX4C-18" value="createdAt" style="text;strokeColor=none;fillColor=none;align=left;verticalAlign=middle;spacingLeft=4;spacingRight=4;overflow=hidden;points=[[0,0.5],[1,0.5]];portConstraint=eastwest;rotatable=0;whiteSpace=wrap;html=1;fontSize=18;" parent="i_2Q07JE8PEJanUUVX4C-13" vertex="1">
          <mxGeometry y="150" width="650" height="30" as="geometry" />
        </mxCell>
        <mxCell id="i_2Q07JE8PEJanUUVX4C-19" value="deletedAt" style="text;strokeColor=none;fillColor=none;align=left;verticalAlign=middle;spacingLeft=4;spacingRight=4;overflow=hidden;points=[[0,0.5],[1,0.5]];portConstraint=eastwest;rotatable=0;whiteSpace=wrap;html=1;fontSize=18;" parent="i_2Q07JE8PEJanUUVX4C-13" vertex="1">
          <mxGeometry y="180" width="650" height="30" as="geometry" />
        </mxCell>
        <mxCell id="i_2Q07JE8PEJanUUVX4C-20" value="content" style="text;strokeColor=none;fillColor=none;align=left;verticalAlign=middle;spacingLeft=4;spacingRight=4;overflow=hidden;points=[[0,0.5],[1,0.5]];portConstraint=eastwest;rotatable=0;whiteSpace=wrap;html=1;fontSize=18;" parent="i_2Q07JE8PEJanUUVX4C-13" vertex="1">
          <mxGeometry y="210" width="650" height="30" as="geometry" />
        </mxCell>
        <mxCell id="KR3u382sj2EVaVP5T0AK-2" value="fileName" style="text;strokeColor=none;fillColor=none;align=left;verticalAlign=middle;spacingLeft=4;spacingRight=4;overflow=hidden;points=[[0,0.5],[1,0.5]];portConstraint=eastwest;rotatable=0;whiteSpace=wrap;html=1;fontSize=18;" vertex="1" parent="i_2Q07JE8PEJanUUVX4C-13">
          <mxGeometry y="240" width="650" height="30" as="geometry" />
        </mxCell>
      </root>
    </mxGraphModel>
  </diagram>
</mxfile>
